<svg width="39" height="30" viewBox="0 0 39 30" fill="none" xmlns="http://www.w3.org/2000/svg">
<path d="M8.72705 29.0122C7.51058 29.0122 6.40918 28.7821 5.42285 28.3218C4.43652 27.8615 3.59814 27.2204 2.90771 26.3984C2.21729 25.5765 1.69124 24.6066 1.32959 23.4888C0.967936 22.3381 0.787109 21.1051 0.787109 19.79C0.787109 18.9023 0.91862 17.8174 1.18164 16.5352C1.44466 15.2529 1.80632 13.9049 2.2666 12.4912C2.75977 11.0775 3.33512 9.68018 3.99268 8.29932C4.68311 6.91846 5.42285 5.68555 6.21191 4.60059C7.03385 3.48275 7.90511 2.57861 8.82568 1.88818C9.74626 1.19775 10.7161 0.852539 11.7354 0.852539C13.4121 0.852539 14.6286 1.23063 15.3848 1.98682C16.1738 2.743 16.5684 3.66357 16.5684 4.74854C16.5684 5.80062 16.3547 6.77051 15.9272 7.6582C15.4998 8.5459 15.0396 9.43359 14.5464 10.3213C14.0861 11.209 13.6587 12.1296 13.2642 13.083C12.9025 14.0036 12.771 15.0063 12.8696 16.0913C13.5929 16.5516 14.1354 17.0941 14.4971 17.7188C14.8916 18.3105 15.1711 18.9023 15.3354 19.4941C15.4998 20.0859 15.5985 20.6284 15.6313 21.1216C15.6642 21.6147 15.6807 21.96 15.6807 22.1572C15.6807 23.1764 15.4834 24.1134 15.0889 24.9683C14.6943 25.7902 14.1683 26.5135 13.5107 27.1382C12.8861 27.73 12.1463 28.1903 11.2915 28.519C10.4696 28.8478 9.61475 29.0122 8.72705 29.0122ZM31.0181 29.0122C29.8016 29.0122 28.7002 28.7821 27.7139 28.3218C26.7275 27.8615 25.8892 27.2204 25.1987 26.3984C24.5083 25.5765 23.9823 24.6066 23.6206 23.4888C23.259 22.3381 23.0781 21.1051 23.0781 19.79C23.0781 18.9023 23.2096 17.8174 23.4727 16.5352C23.7357 15.2529 24.0973 13.9049 24.5576 12.4912C25.0508 11.0775 25.6261 9.68018 26.2837 8.29932C26.9741 6.91846 27.7139 5.68555 28.5029 4.60059C29.3249 3.48275 30.1961 2.57861 31.1167 1.88818C32.0373 1.19775 33.0072 0.852539 34.0264 0.852539C35.7031 0.852539 36.9196 1.23063 37.6758 1.98682C38.4648 2.743 38.8594 3.66357 38.8594 4.74854C38.8594 5.80062 38.6457 6.77051 38.2183 7.6582C37.7909 8.5459 37.3306 9.43359 36.8374 10.3213C36.3771 11.209 35.9497 12.1296 35.5552 13.083C35.1935 14.0036 35.062 15.0063 35.1606 16.0913C35.884 16.5516 36.4264 17.0941 36.7881 17.7188C37.1826 18.3105 37.4621 18.9023 37.6265 19.4941C37.7909 20.0859 37.8895 20.6284 37.9224 21.1216C37.9552 21.6147 37.9717 21.96 37.9717 22.1572C37.9717 23.1764 37.7744 24.1134 37.3799 24.9683C36.9854 25.7902 36.4593 26.5135 35.8018 27.1382C35.1771 27.73 34.4373 28.1903 33.5825 28.519C32.7606 28.8478 31.9058 29.0122 31.0181 29.0122Z" fill="#1D8DD1"/>
</svg>
