<svg width="46" height="46" viewBox="0 0 46 46" fill="none" xmlns="http://www.w3.org/2000/svg">
<g clip-path="url(#clip0_8_176)">
<path d="M23 46C35.7026 46 46 35.7026 46 23C46 10.2975 35.7026 0 23 0C10.2975 0 0 10.2975 0 23C0 35.7026 10.2975 46 23 46Z" fill="white"/>
<path d="M41.7413 36.5587C39.9306 33.912 36.4226 32.2667 32.5866 32.2667H32.2533V32.28H13.0533C9.38929 32.28 5.96128 33.812 4.10662 36.28L3.95862 36.476L4.10262 36.6747C4.11328 36.6893 4.12528 36.704 4.13595 36.7187C4.35462 36.5893 4.61462 36.5547 4.87462 36.596C4.84662 36.5587 4.81728 36.5227 4.79062 36.4853C6.55328 34.296 9.69195 32.9453 13.0533 32.9453H32.5866L32.8506 32.9347C36.2693 33.0053 39.3706 34.444 41.0533 36.7387C41.0493 36.744 41.044 36.7493 41.04 36.756C41.24 36.8587 41.4146 37.0173 41.528 37.2107C41.596 37.1213 41.6653 37.0347 41.732 36.944L41.8746 36.7533L41.74 36.556L41.7413 36.5587Z" fill="#292560"/>
<path d="M14.08 20.0533C14.08 20.0533 11.72 11.3733 13.4533 8.80001C15.2133 6.17334 17.3867 6.54667 20.52 8.16001C23.6533 9.77334 23.32 7.18667 27.5867 8.64001C29.9467 9.44001 31.52 11.2133 31.36 12.9867C31.2 14.76 31.2 19.4133 29.6267 21.1867C28.0533 22.96 16.5867 24.56 14.0667 20.0667L14.08 20.0533Z" fill="#292560"/>
<path d="M22.0401 36.1867H22.0534C20.1201 36.1867 18.5601 34.6267 18.5601 32.6933V20C18.5601 18.0667 20.1201 16.5067 22.0534 16.5067H22.0401C23.9734 16.5067 25.5334 18.0667 25.5334 20V32.6933C25.5334 34.6267 23.9734 36.1867 22.0401 36.1867Z" fill="white"/>
<path d="M22.0534 36.4667H22.0267C19.9601 36.4667 18.2667 34.76 18.2667 32.6933V20C18.2667 17.92 19.9467 16.24 22.0267 16.2267H22.0534C24.1201 16.2267 25.8134 17.9333 25.8134 20V32.6933C25.8134 34.7733 24.1334 36.4533 22.0534 36.4667ZM22.0534 16.7867C20.2934 16.7867 18.8534 18.2267 18.8534 20V32.6933C18.8534 34.4533 20.2934 35.8933 22.0534 35.8933C23.8134 35.8933 25.2534 34.4533 25.2534 32.68V19.9867C25.2534 18.2267 23.8134 16.7867 22.0534 16.7867Z" fill="#292560"/>
<path d="M16.5867 20.9867C17.0267 22.5867 16.6934 24.0667 15.8534 24.2933C15.0134 24.52 13.9867 23.4133 13.5467 21.8133C13.1067 20.2133 13.44 18.7333 14.28 18.5067C15.12 18.28 16.1467 19.3867 16.5867 20.9867Z" fill="white"/>
<path d="M15.6267 24.6133C15.2001 24.6133 14.7467 24.3733 14.3334 23.9333C13.8667 23.4267 13.4934 22.7067 13.2667 21.8933C12.7867 20.12 13.2001 18.5067 14.2001 18.24C14.7067 18.0933 15.2801 18.32 15.7867 18.88C16.2534 19.3867 16.6267 20.1067 16.8534 20.9333C17.3334 22.7067 16.9201 24.32 15.9201 24.5867C15.8267 24.6133 15.7201 24.6267 15.6134 24.6267L15.6267 24.6133ZM14.5067 18.76C14.4534 18.76 14.4001 18.76 14.3601 18.7733C13.7734 18.9333 13.4134 20.1867 13.8267 21.7333C14.0267 22.4667 14.3601 23.1067 14.7601 23.5467C15.1201 23.9333 15.4801 24.1067 15.7867 24.0267C16.3734 23.8667 16.7334 22.6133 16.3201 21.0667C16.1201 20.3333 15.7867 19.6933 15.3867 19.2533C15.0934 18.9333 14.7734 18.76 14.5067 18.76Z" fill="#292560"/>
<path d="M27.1733 20.9867C26.7333 22.5867 27.0666 24.0667 27.9066 24.2933C28.7466 24.52 29.7733 23.4133 30.2133 21.8133C30.6533 20.2133 30.3199 18.7333 29.4799 18.5067C28.6399 18.28 27.6133 19.3867 27.1733 20.9867Z" fill="white"/>
<path d="M28.12 24.6133C28.0133 24.6133 27.92 24.6 27.8266 24.5733C26.8133 24.2933 26.4133 22.6933 26.8933 20.92C27.3733 19.1467 28.5466 17.96 29.5466 18.24C30.0666 18.3733 30.4266 18.8533 30.6 19.5867C30.7466 20.2533 30.7066 21.08 30.48 21.8933C30.04 23.4933 29.0533 24.6133 28.12 24.6133ZM27.44 21.0667C27.0266 22.6133 27.3866 23.8667 27.9733 24.0267C28.56 24.1867 29.5066 23.2933 29.9333 21.7467C30.1333 21.0133 30.1733 20.2933 30.04 19.72C29.92 19.2133 29.6933 18.8667 29.4 18.8C28.8133 18.64 27.8666 19.5333 27.44 21.08V21.0667Z" fill="#292560"/>
<path d="M23.9734 31.5467H19.8134C17.3467 31.5467 15.3334 29.5467 15.3334 27.0667V15.12C15.3334 12.6533 17.3334 10.64 19.8134 10.64H23.9734C26.44 10.64 28.4534 12.64 28.4534 15.12V27.0667C28.4534 29.5333 26.4534 31.5467 23.9734 31.5467Z" fill="white"/>
<path d="M24.2 31.8267H19.5867C17.08 31.8267 15.0533 29.7867 15.0533 27.2933V14.8933C15.0533 12.3867 17.0933 10.36 19.5867 10.36H24.2C26.7067 10.36 28.7333 12.4 28.7333 14.8933V27.2933C28.7333 29.8 26.6933 31.8267 24.2 31.8267ZM19.5867 10.92C17.4 10.92 15.6133 12.6933 15.6133 14.8933V27.2933C15.6133 29.48 17.4 31.2667 19.5867 31.2667H24.2C26.3867 31.2667 28.1733 29.48 28.1733 27.2933V14.8933C28.1733 12.7067 26.3867 10.92 24.2 10.92H19.5867Z" fill="#292560"/>
<path d="M15.7867 17.48C15.7867 17.48 16.2934 13.2133 17.6134 13.8C18.9334 14.3867 18.9734 15.6 21.0267 15.7467C23.0667 15.8933 24.3867 15.16 25.12 15.8933C25.8534 16.6267 27.16 18.2267 28.92 17.0667C30.6667 15.8933 30.84 13.0933 28.0667 11.64C25.2934 10.1867 21.1334 9.96001 18.7867 9.81334C16.4534 9.66667 14.04 13.9733 15.7867 17.48Z" fill="#292560"/>
</g>
<defs>
<clipPath id="clip0_8_176">
<rect width="46" height="46" fill="white"/>
</clipPath>
</defs>
</svg>
