<svg width="44" height="44" viewBox="0 0 44 44" fill="none" xmlns="http://www.w3.org/2000/svg">
<g clip-path="url(#clip0_7_749)">
<path d="M22 44C34.1503 44 44 34.1503 44 22C44 9.84973 34.1503 0 22 0C9.84973 0 0 9.84973 0 22C0 34.1503 9.84973 44 22 44Z" fill="white"/>
<path d="M33.6254 29.6585C33.6254 29.6585 33.6241 29.6585 33.6229 29.6585L27.7674 27.3339L26.6644 25.3052C26.6466 25.2733 26.6172 25.2503 26.5828 25.2401C26.5484 25.2299 26.5101 25.2338 26.4795 25.2516L26.3979 25.2962L26.8863 21.1967C26.8939 21.1329 26.8544 21.0717 26.7932 21.0513C26.732 21.0322 26.6644 21.0589 26.6325 21.1163C24.2837 25.4403 17.9412 23.3274 17.8761 23.3057C17.8379 23.293 17.7945 23.2981 17.7601 23.3198C17.7257 23.3414 17.7027 23.3784 17.6976 23.4192L17.426 25.8318L15.9392 27.492L11.1128 27.974C9.28679 28.1564 7.62528 29.0273 6.43558 30.4261L3.49255 33.8869C7.40724 39.9693 14.2305 44.0013 22.0012 44.0013C26.9488 44.0013 31.5138 42.3678 35.1887 39.6122C35.9449 37.331 35.8837 34.4887 35.306 32.3669C34.9082 30.9107 34.3114 29.9492 33.6254 29.6598V29.6585Z" fill="white"/>
<path d="M20.8358 5.95361C19.78 5.95361 18.8555 6.49172 18.3212 7.31036H17.2871C16.0005 7.31036 14.9574 8.35343 14.9574 9.64132V15.396H16.596V13.0549C16.596 12.1508 17.3317 11.4163 18.2358 11.4163H19.1909H17.676H18.6783C20.3385 11.4163 21.685 10.0723 21.685 8.40826V5.95361H20.8358Z" fill="#292560"/>
<path d="M17.4108 17.537C17.4108 18.3263 16.7707 18.9614 15.9801 18.9614H15.8615C15.076 18.9614 14.4359 18.3263 14.4359 17.537V15.8054C14.4359 15.0212 15.076 14.3823 15.8615 14.3823H15.9801C16.5654 14.3823 17.0665 14.7317 17.2897 15.2316L17.4108 17.537Z" fill="white"/>
<path d="M15.98 19.2342H15.8615C14.9255 19.2342 14.163 18.473 14.163 17.537V15.8054C14.163 14.8707 14.9242 14.1094 15.8615 14.1094H15.98C16.6533 14.1094 17.2641 14.506 17.5383 15.1193C17.5995 15.2571 17.5383 15.4177 17.4005 15.4789C17.2616 15.5401 17.1022 15.4777 17.041 15.3412C16.8548 14.9243 16.4391 14.6539 15.98 14.6539H15.8615C15.2252 14.6539 14.7087 15.1704 14.7087 15.8054V17.537C14.7087 18.172 15.2264 18.6897 15.8615 18.6897H15.98C16.6189 18.6897 17.1379 18.1733 17.1379 17.537C17.1379 17.3865 17.2603 17.2641 17.4107 17.2641C17.5612 17.2641 17.6836 17.3865 17.6836 17.537C17.6836 18.473 16.9198 19.2342 15.98 19.2342Z" fill="#292560"/>
<path d="M19.5569 8.23867V5.95361H24.493C26.1545 5.95361 27.4997 7.29889 27.4997 8.95529V11.2429H22.5611C20.9022 11.2429 19.5569 9.89762 19.5569 8.23867Z" fill="#292560"/>
<path d="M25.4646 15.8054C25.4646 15.0173 26.1009 14.3823 26.8889 14.3823H27.0088C27.7943 14.3823 28.437 15.0186 28.437 15.8054V17.537C28.437 18.3225 27.7943 18.9614 27.0088 18.9614H26.8889C26.3075 18.9614 25.8051 18.6145 25.5832 18.1147L25.4646 15.8054Z" fill="white"/>
<path d="M27.0088 19.2342H26.8889C26.2169 19.2342 25.6061 18.8389 25.3345 18.2256C25.2733 18.0879 25.3345 17.9272 25.4722 17.866C25.6099 17.8048 25.7706 17.866 25.8318 18.0037C26.0167 18.4194 26.4324 18.6885 26.8889 18.6885H27.0088C27.6463 18.6885 28.1641 18.172 28.1641 17.5357V15.8041C28.1641 15.1691 27.6451 14.6526 27.0088 14.6526H26.8889C26.2539 14.6526 25.7362 15.1691 25.7362 15.8041C25.7362 15.9546 25.6138 16.077 25.4633 16.077C25.3128 16.077 25.1904 15.9546 25.1904 15.8041C25.1904 14.8694 25.9517 14.1082 26.8876 14.1082H27.0075C27.946 14.1082 28.7085 14.8694 28.7085 15.8041V17.5357C28.7085 18.473 27.946 19.2342 27.0088 19.2342Z" fill="#292560"/>
<path d="M27.075 19.7252C27.0712 20.9174 26.1569 22.9449 24.6446 23.5812C22.5865 24.433 20.151 24.433 18.0942 23.5812C16.5768 22.9436 15.6727 20.9174 15.6625 19.7252V9.54699C15.6561 8.34326 16.8573 7.33334 18.3365 7.30402H24.4036C25.884 7.33207 27.0865 8.34326 27.075 9.54699V19.7252Z" fill="white"/>
<path d="M21.3675 24.4904C20.2072 24.4904 19.0468 24.271 17.9897 23.8337C16.3307 23.1374 15.3999 20.9633 15.3897 19.7277V9.54699C15.3833 8.19279 16.7018 7.06301 18.3301 7.03241H24.4024C26.0409 7.06301 27.3594 8.19279 27.3467 9.55081V19.7264C27.3428 20.9608 26.4158 23.1323 24.7492 23.8349C23.6896 24.271 22.5292 24.4904 21.3675 24.4904ZM24.3985 7.57689H18.3365C17.0104 7.6024 15.9303 8.48607 15.9354 9.54571V19.7252C15.9444 20.8358 16.8102 22.7472 18.2001 23.33C20.1829 24.1512 22.5534 24.1512 24.5401 23.33C25.9364 22.7421 26.7984 20.8333 26.8022 19.7239V9.54699C26.8124 8.48479 25.7336 7.6024 24.3985 7.57689Z" fill="#292560"/>
<path d="M22.5343 5.95361C23.5913 5.95361 24.5145 6.49172 25.0527 7.31036H26.0842C27.3683 7.31036 28.4114 8.35343 28.4114 9.64132V15.396H26.7728V13.0549C26.7728 12.1508 26.0371 11.4163 25.133 11.4163H25.1151H25.6941H23.0392C21.3764 11.4163 20.0363 10.0723 20.0363 8.40826V5.95361H22.5343Z" fill="#292560"/>
<path d="M20.0376 8.82778C20.072 8.63778 20.0924 8.44141 20.0924 8.23867V5.95361H17.968C16.3027 5.95361 14.9574 7.29889 14.9574 8.95529V11.2429H17.0869C17.2973 11.2429 17.5077 11.2212 17.704 11.1779C17.94 10.0022 18.8619 9.07388 20.0376 8.82778Z" fill="#292560"/>
<path d="M26.2297 25.8369C26.2195 25.8369 26.208 25.8369 26.1978 25.8369C26.0486 25.819 25.9415 25.6839 25.9593 25.5347L26.4809 21.1507C26.4987 21.0016 26.6313 20.8957 26.7831 20.9123C26.9323 20.9301 27.0394 21.0653 27.0215 21.2145L26.5 25.5984C26.4834 25.7361 26.3661 25.8382 26.2297 25.8382V25.8369Z" fill="#292560"/>
<path d="M17.5218 26.4668C17.5116 26.4668 17.5014 26.4668 17.4912 26.4668C17.342 26.4502 17.2336 26.3151 17.2514 26.1659L17.5626 23.4027C17.5791 23.2535 17.713 23.1451 17.8635 23.1629C18.0127 23.1795 18.1211 23.3147 18.1032 23.4639L17.7921 26.2271C17.7768 26.3648 17.6582 26.4681 17.5218 26.4681V26.4668Z" fill="#292560"/>
<path d="M20.1485 33.4342C20.1154 33.4342 20.0809 33.4278 20.049 33.415C19.9611 33.3806 19.896 33.3016 19.8807 33.2085L19.2049 29.3346C19.1845 29.2198 19.2393 29.1063 19.3413 29.049L26.4133 25.1305C26.477 25.0948 26.5523 25.0871 26.6211 25.1075C26.6913 25.1279 26.7499 25.1751 26.7843 25.2388L27.9103 27.3109C27.974 27.4295 27.9422 27.5762 27.8363 27.6578L20.3143 33.3781C20.2658 33.415 20.2072 33.4342 20.1485 33.4342ZM19.7749 29.4315L20.3411 32.6729L27.3212 27.3645L26.4375 25.7387L19.7749 29.4315Z" fill="#292560"/>
<path d="M17.3559 33.1179C17.3431 33.1179 17.3304 33.1167 17.3176 33.1154C17.2093 33.1001 17.12 33.021 17.0919 32.9139L15.7403 27.6884C15.7173 27.6004 15.7403 27.506 15.8015 27.4385L17.3329 25.7272C17.3916 25.6622 17.4758 25.629 17.565 25.638C17.6517 25.6469 17.7295 25.6979 17.7729 25.7731L19.7098 29.151C19.7583 29.2364 19.7583 29.341 19.7073 29.4264L17.5905 32.9853C17.5408 33.0682 17.4515 33.1179 17.3559 33.1179ZM16.3052 27.6935L17.4566 32.145L19.1577 29.2849L17.4872 26.3725L16.3052 27.6935Z" fill="#292560"/>
<path d="M3.59463 34.2464C3.53215 34.2464 3.46967 34.2247 3.41866 34.1814C3.3039 34.0845 3.28988 33.9123 3.38806 33.7976L6.33109 30.3381C7.54374 28.9125 9.23713 28.025 11.0988 27.8388L15.9788 27.3505C16.1318 27.3364 16.2619 27.4448 16.2772 27.594C16.2925 27.7432 16.1828 27.8771 16.0336 27.8924L11.1537 28.3808C9.43223 28.5529 7.86763 29.3728 6.74678 30.6913L3.80376 34.1521C3.74893 34.2133 3.67242 34.2464 3.59463 34.2464Z" fill="#292560"/>
<path d="M6.60269 39.5255C6.56316 39.5255 6.52363 39.5166 6.48537 39.4988C6.35021 39.4337 6.29283 39.2705 6.35659 39.1353L8.73217 34.1699C8.79721 34.0348 8.95915 33.9774 9.09559 34.0412C9.23075 34.1062 9.28813 34.2694 9.22438 34.4046L6.84879 39.37C6.80161 39.4682 6.70342 39.5255 6.60269 39.5255Z" fill="#292560"/>
<path d="M16.4545 43.4338C16.3996 43.4338 16.3435 43.4172 16.2951 43.3828C16.1726 43.2948 16.1459 43.124 16.2339 43.0028C16.2415 42.9913 17.0601 41.8616 18.1746 40.3888C20.1804 37.7378 22.8493 34.365 24.1729 33.3513C25.5653 32.2853 31.2601 28.5121 33.679 29.5322C35.6415 30.3611 36.5456 35.9424 35.3189 39.6543C35.0575 40.4449 34.7106 41.1347 34.2873 41.7035C34.198 41.8246 34.0272 41.8501 33.906 41.7596C33.7849 41.6703 33.7607 41.4994 33.8499 41.3783C34.2388 40.8555 34.5589 40.2192 34.8024 39.4834C35.9973 35.8684 35.0116 30.6875 33.4674 30.0346C32.6666 29.6967 31.1198 30.0372 29.1064 30.9923C27.246 31.8759 25.4646 33.0478 24.5044 33.7836C23.5098 34.5448 21.416 37.0071 18.6094 40.7165C17.4988 42.1842 16.684 43.3101 16.6763 43.3216C16.6228 43.3943 16.5399 43.4338 16.4545 43.4338Z" fill="#292560"/>
<path d="M33.572 30.0551C33.5388 30.0551 33.5044 30.0487 33.4712 30.036L27.5699 27.6935C27.4296 27.6374 27.362 27.4793 27.4168 27.339C27.473 27.1988 27.6311 27.1312 27.7713 27.186L33.6727 29.5284C33.813 29.5846 33.8805 29.7427 33.8257 29.8829C33.7823 29.99 33.6803 30.0551 33.572 30.0551Z" fill="#292560"/>
</g>
<defs>
<clipPath id="clip0_7_749">
<rect width="44" height="44" fill="white"/>
</clipPath>
</defs>
</svg>
