<svg width="44" height="44" viewBox="0 0 44 44" fill="none" xmlns="http://www.w3.org/2000/svg">
<g clip-path="url(#clip0_7_676)">
<path d="M22 44C34.1503 44 44 34.1503 44 22C44 9.84973 34.1503 0 22 0C9.84973 0 0 9.84973 0 22C0 34.1503 9.84973 44 22 44Z" fill="white"/>
<path d="M22 44C28.8449 44 34.9592 40.8734 38.9938 35.9717L39.018 34.8585C39.092 31.5202 36.4448 28.7557 33.1077 28.6817L14.3351 28.2686C10.9968 28.1946 8.23101 30.8418 8.15833 34.1789L8.05249 39.0117C11.8486 42.1281 16.7056 44 22 44Z" fill="white"/>
<path d="M8.05246 39.2845H8.04609C7.89562 39.2807 7.77703 39.157 7.77958 39.0065L7.88542 34.1737C7.9224 32.4867 8.6148 30.9145 9.83383 29.7477C11.0529 28.581 12.6417 27.9574 14.3402 27.9957L33.1128 28.4088C34.7998 28.4458 36.3721 29.1382 37.5388 30.3572C38.7056 31.5763 39.3278 33.1766 39.2909 34.8649L39.2666 35.9781C39.2628 36.126 39.1417 36.2446 38.9937 36.2446H38.9874C38.8369 36.2407 38.7183 36.117 38.7209 35.9666L38.7451 34.8534C38.7795 33.3117 38.2108 31.8492 37.1448 30.7347C36.0788 29.6202 34.6417 28.9877 33.1 28.9546L14.3274 28.5414C12.7909 28.5032 11.3232 29.0757 10.2087 30.1417C9.09425 31.2078 8.46306 32.6436 8.42863 34.1852L8.32534 39.018C8.32152 39.1659 8.20038 39.2845 8.05246 39.2845Z" fill="#292560"/>
<path d="M20.9263 26.8647H18.4767C13.9742 26.8647 10.3235 23.2139 10.3235 18.7114V13.2831C10.3235 8.78061 13.9742 5.12988 18.4767 5.12988H20.9263C25.4288 5.12988 29.0795 8.78061 29.0795 13.2831V18.7114C29.0795 23.2139 25.4288 26.8647 20.9263 26.8647Z" fill="#292560"/>
<path d="M21.9961 21.546C17.6734 21.546 14.1693 18.042 14.1693 13.7192V12.1189C14.1693 7.7962 17.6734 4.29211 21.9961 4.29211C26.3188 4.29211 29.8229 7.7962 29.8229 12.1189V13.7192C29.8229 18.042 26.3188 21.546 21.9961 21.546Z" fill="#292560"/>
<path d="M29.9391 13.2972C27.0993 12.8165 23.8592 12.6724 20.4418 12.9465C16.383 13.273 10.5926 18.0713 10.5926 19.5874C10.5926 23.1757 8.65696 26.3036 5.78662 27.9651C9.45775 29.9059 15.3119 30.8941 21.8062 30.3726C30.365 29.684 37.4216 26.5829 39.6722 22.8952C35.0179 21.6124 31.3277 17.9616 29.9391 13.2972Z" fill="#292560"/>
<path d="M5.10689 27.3759C5.00743 27.3759 4.91179 27.3211 4.86334 27.2267C4.79576 27.0929 4.84931 26.9284 4.9832 26.8608C7.95045 25.3548 9.90907 22.3379 10.094 18.9881C10.1016 18.8376 10.2279 18.7241 10.3809 18.7305C10.5313 18.7381 10.6461 18.8669 10.6385 19.0174C10.4434 22.561 8.37125 25.7527 5.23058 27.3466C5.19105 27.3657 5.14897 27.3759 5.10689 27.3759Z" fill="#292560"/>
<path d="M30.5218 11.2697C30.3956 11.2697 30.2821 11.1818 30.2553 11.0543C29.7746 8.78833 28.6869 7.09621 27.0241 6.02637C25.267 4.8966 22.8595 4.52298 20.5821 5.02794C20.4329 5.06109 20.2888 4.968 20.2569 4.82136C20.225 4.67472 20.3169 4.52936 20.4635 4.4962C22.8786 3.95937 25.4417 4.36104 27.3187 5.5686C29.109 6.72132 30.277 8.5282 30.7883 10.942C30.8189 11.0887 30.7258 11.234 30.5779 11.2646C30.5601 11.2672 30.5409 11.2697 30.5218 11.2697Z" fill="#292560"/>
<path d="M28.4369 16.1535L30.1302 15.6498C31.1644 15.3425 31.7535 14.2548 31.4462 13.2206C31.1389 12.1865 30.0512 11.5974 29.017 11.9047L27.3237 12.4084C26.2895 12.7157 25.7004 13.8034 26.0077 14.8375C26.3163 15.8717 27.404 16.4608 28.4369 16.1535Z" fill="white"/>
<path d="M27.8784 16.508C27.5137 16.508 27.1516 16.4175 26.8213 16.2389C26.2985 15.9559 25.9173 15.4866 25.7477 14.9166C25.3983 13.7397 26.0703 12.499 27.2472 12.1496L28.9406 11.6459C29.5106 11.4763 30.1125 11.5388 30.6353 11.8219C31.1581 12.1049 31.5394 12.5742 31.709 13.1442C31.8786 13.7142 31.8161 14.316 31.5317 14.8388C31.2486 15.3616 30.7781 15.7429 30.2094 15.9125L28.516 16.4162C28.3056 16.4774 28.0914 16.508 27.8784 16.508ZM29.5769 12.096C29.4163 12.096 29.2543 12.119 29.0962 12.1661L27.4028 12.6698C26.9731 12.7973 26.6173 13.0855 26.4044 13.4808C26.1902 13.8748 26.143 14.3301 26.2718 14.7598C26.3993 15.1895 26.6875 15.5453 27.0828 15.7582C27.478 15.9724 27.932 16.0196 28.3617 15.8921L30.0551 15.3884C30.4848 15.2609 30.8406 14.9727 31.0548 14.5774C31.269 14.1821 31.3162 13.7282 31.1874 13.2985C31.0599 12.8675 30.7717 12.513 30.3764 12.3C30.1252 12.1649 29.8524 12.096 29.5769 12.096Z" fill="#292560"/>
<path d="M13.857 19.905L12.0896 19.8718C11.0109 19.8514 10.1527 18.9614 10.1731 17.8826C10.1935 16.8038 11.0835 15.9457 12.1623 15.9661L13.9297 15.9979C15.0084 16.0183 15.8666 16.9084 15.8462 17.9872C15.8258 19.0659 14.9357 19.9241 13.857 19.905Z" fill="white"/>
<path d="M13.8939 20.1778H13.8518L12.0845 20.1447C11.4903 20.1332 10.9356 19.8922 10.5237 19.4638C10.1105 19.0353 9.88995 18.473 9.90143 17.8788C9.9129 17.2845 10.1539 16.7299 10.5824 16.318C11.0108 15.9048 11.5719 15.683 12.1674 15.6957L13.9347 15.7289C14.5289 15.7403 15.0836 15.9813 15.4955 16.4098C15.9086 16.8382 16.1292 17.4006 16.1177 17.9948C16.0961 19.2062 15.1015 20.1778 13.8939 20.1778ZM13.862 19.6321H13.8939C14.8056 19.6321 15.5567 18.8989 15.5733 17.982C15.5809 17.5332 15.4151 17.1086 15.1027 16.7847C14.7916 16.4621 14.3721 16.2785 13.9232 16.2708L12.1559 16.2376C11.6994 16.2223 11.2824 16.3958 10.9585 16.7082C10.6359 17.0193 10.4536 17.4388 10.4446 17.8877C10.437 18.3365 10.6028 18.7611 10.9152 19.085C11.2263 19.4076 11.6458 19.5913 12.0947 19.5989L13.862 19.6321Z" fill="#292560"/>
<path d="M24.4649 36.0252C21.1661 36.5366 18.0764 34.2758 17.5651 30.977L16.3843 23.3593C15.873 20.0605 18.1338 16.9708 21.4326 16.4595C24.7314 15.9482 27.821 18.209 28.3324 21.5078L29.5131 29.1255C30.0245 32.4255 27.7636 35.5139 24.4649 36.0252Z" fill="white"/>
<path d="M23.5251 36.3708C22.1939 36.3708 20.9021 35.9513 19.8081 35.1505C18.4462 34.1546 17.5536 32.6869 17.296 31.0191L16.1153 23.4014C15.8564 21.7335 16.2632 20.0656 17.2591 18.7037C18.2549 17.3419 19.7226 16.4493 21.3905 16.1904C23.0584 15.9329 24.7263 16.3384 26.0881 17.3355C27.45 18.3314 28.3426 19.7991 28.6002 21.467L29.7809 29.0847C30.3139 32.5275 27.9473 35.7626 24.5057 36.2956C24.178 36.3453 23.8503 36.3708 23.5251 36.3708ZM22.3698 16.6597C22.0727 16.6597 21.7731 16.6826 21.4734 16.7286C19.9496 16.9645 18.6082 17.7805 17.699 19.0238C16.7885 20.2683 16.4175 21.7934 16.6534 23.3172L17.8341 30.9349C18.07 32.4587 18.8849 33.7989 20.1307 34.7093C21.3752 35.6198 22.9003 35.9921 24.4228 35.7549C27.5686 35.2678 29.7312 32.312 29.2441 29.1663L28.0633 21.5486C27.8274 20.0248 27.0126 18.6846 25.7668 17.7742C24.7671 17.0435 23.5863 16.6597 22.3698 16.6597Z" fill="#292560"/>
<path d="M21.1737 26.8646C16.8076 26.8646 13.2678 23.3248 13.2678 18.9587V16.448C13.2678 12.0819 16.8076 8.54211 21.1737 8.54211C25.5398 8.54211 29.0796 12.0819 29.0796 16.448V18.9587C29.0796 23.3248 25.5398 26.8646 21.1737 26.8646Z" fill="white"/>
<path d="M12.8674 15.9023V15.9163C14.2675 14.9701 15.3004 11.6726 15.3004 7.74901V7.73499C13.9016 8.67986 12.8674 11.9774 12.8674 15.9023Z" fill="#292560"/>
<path d="M21.1737 27.1362C17.0129 27.1362 13.5203 24.0236 13.0498 19.8947C13.0332 19.7455 13.1403 19.6104 13.2895 19.5925C13.4413 19.5759 13.5739 19.683 13.5904 19.8322C14.0304 23.6844 17.2896 26.5905 21.1737 26.5905C22.9258 26.5905 24.637 25.9822 25.9925 24.878C26.1098 24.7836 26.2806 24.8002 26.3763 24.9175C26.4719 25.0335 26.4541 25.2057 26.3368 25.3013C24.8831 26.4846 23.0507 27.1362 21.1737 27.1362Z" fill="#292560"/>
<path d="M28.8922 14.8604C28.7608 14.8604 28.6461 14.7661 28.6231 14.6322C28.4089 13.3481 29.4507 12.7067 29.4953 12.6799C29.6241 12.6022 29.7911 12.6442 29.8689 12.773C29.9467 12.9018 29.9046 13.0689 29.7771 13.1466C29.7427 13.1683 29.0095 13.6325 29.1612 14.5429C29.1854 14.6908 29.086 14.8324 28.9368 14.8566C28.9228 14.8592 28.9075 14.8604 28.8922 14.8604Z" fill="#292560"/>
<path d="M13.0001 18.7905C12.8624 18.7905 12.7438 18.6872 12.7298 18.5469C12.6329 17.6276 11.7977 17.3764 11.762 17.3662C11.6179 17.3241 11.5337 17.1749 11.5745 17.0295C11.6153 16.8854 11.7645 16.8013 11.9086 16.8408C11.9583 16.8548 13.134 17.194 13.2717 18.4896C13.2883 18.6388 13.1786 18.7739 13.0294 18.7892C13.0192 18.7892 13.009 18.7892 13.0001 18.7892V18.7905Z" fill="#292560"/>
<path d="M17.2259 10.6781C16.8472 12.1649 16.0158 13.2373 15.3693 13.0715C14.7228 12.907 14.506 11.5681 14.8847 10.08C15.2634 8.5932 16.0948 7.52081 16.7413 7.68658C17.3878 7.85235 17.6046 9.19124 17.2259 10.6781Z" fill="#292560"/>
<path d="M19.6997 9.05345C20.7848 10.1386 21.2821 11.401 20.8103 11.8728C20.3385 12.3446 19.0761 11.8473 17.991 10.7621C16.9059 9.67699 16.4086 8.4146 16.8804 7.9428C17.3522 7.47227 18.6145 7.9683 19.6997 9.05345Z" fill="#292560"/>
<path d="M23.1846 7.57311C25.1624 8.71436 26.3636 10.3376 25.8662 11.1971C25.3702 12.0565 23.3644 11.8283 21.3867 10.687C19.4089 9.54576 18.2078 7.9225 18.7051 7.06306C19.2011 6.20234 21.2069 6.43186 23.1846 7.57311Z" fill="#292560"/>
<path d="M30.8419 17.7027C30.7526 17.7027 30.6633 17.6951 30.5741 17.6811C30.1316 17.6109 29.744 17.3712 29.4813 17.0091C29.3933 16.8866 29.4201 16.717 29.5425 16.6291C29.6649 16.5411 29.8345 16.5679 29.9225 16.6903C30.0997 16.9351 30.3624 17.0958 30.6608 17.1442C30.9592 17.1914 31.2588 17.12 31.5037 16.9427C31.7485 16.7655 31.9092 16.5028 31.9576 16.2044C32.0061 15.9061 31.9334 15.6064 31.7561 15.3616C31.5789 15.1167 31.3162 14.9561 31.0178 14.9076C30.7195 14.8604 30.4198 14.9318 30.175 15.1091C30.0526 15.1971 29.883 15.1703 29.795 15.0479C29.707 14.9255 29.7338 14.7559 29.8562 14.6679C30.2183 14.4052 30.6621 14.2981 31.1045 14.3695C31.547 14.4396 31.9347 14.6794 32.1973 15.0415C32.46 15.4036 32.5659 15.8474 32.4957 16.2899C32.4243 16.7323 32.1859 17.12 31.8237 17.3827C31.533 17.5918 31.1925 17.7027 30.8419 17.7027Z" fill="#1D8DD1"/>
<path d="M11.9965 22.3239C11.971 22.3239 11.9455 22.3239 11.92 22.3239C11.4724 22.3035 11.0592 22.111 10.757 21.7807C10.4548 21.4505 10.2992 21.022 10.3197 20.5745C10.3605 19.6513 11.1485 18.9372 12.0691 18.9742C12.2196 18.9805 12.3356 19.108 12.3293 19.2585C12.3229 19.409 12.1814 19.5225 12.0449 19.5186C11.415 19.4906 10.8909 19.9751 10.8641 20.5987C10.8501 20.9009 10.9559 21.1903 11.16 21.4135C11.364 21.6366 11.6432 21.7667 11.9442 21.7807C12.2502 21.7948 12.5358 21.6889 12.759 21.4849C12.9821 21.2809 13.1122 21.0016 13.1262 20.6994C13.1326 20.549 13.2716 20.4355 13.4106 20.4393C13.5611 20.4457 13.6771 20.5732 13.6707 20.7236C13.6503 21.1712 13.4578 21.5844 13.1275 21.8866C12.8138 22.1697 12.416 22.3252 11.9965 22.3252V22.3239Z" fill="#1D8DD1"/>
</g>
<defs>
<clipPath id="clip0_7_676">
<rect width="44" height="44" fill="white"/>
</clipPath>
</defs>
</svg>
