<svg width="44" height="44" viewBox="0 0 44 44" fill="none" xmlns="http://www.w3.org/2000/svg">
<g clip-path="url(#clip0_8_298)">
<circle cx="22" cy="22" r="22" fill="white"/>
<path d="M22 0C9.84962 0 0 9.84962 0 22C0 34.1504 9.84962 44 22 44C25.4422 44 28.6982 43.2093 31.5997 41.8C31.4734 41.221 31.7922 40.5285 32.5575 40.5285C32.8992 40.5285 33.1505 40.6662 33.315 40.8703C39.7173 37.0238 44.0013 30.0118 44.0013 22C44 9.84962 34.1504 0 22 0Z" fill="white"/>
<path d="M23.1938 39.2977C23.3341 39.4686 23.4756 39.6395 23.6172 39.8092C23.5955 39.7084 23.5751 39.6076 23.556 39.5056C23.4208 38.7391 24.2651 37.7571 25.0545 38.354C25.353 38.5797 25.6361 38.822 25.9167 39.0682C26.2853 38.9317 26.6602 38.808 27.039 38.7009C27.0109 38.6677 26.9829 38.6345 26.9561 38.6014C26.6232 38.1984 26.5544 37.6933 26.8757 37.2623C27.155 36.8886 27.7838 36.7075 28.1919 36.9995C28.739 37.3911 29.2696 37.8043 29.7887 38.229C30.3996 38.1971 31.0092 38.2188 31.6099 38.3017C31.9173 38.3042 32.2144 38.3527 32.5026 38.4343C32.6939 37.7469 33.2513 37.2508 34.0535 37.0072C34.3392 36.9205 34.6389 36.8694 34.9399 36.8325C35.0444 36.7406 35.1643 36.6679 35.2906 36.6195C35.6885 35.3467 35.6311 33.6951 34.9424 31.5665C34.1772 29.1816 29.5094 25.585 31.4479 22.1671V22.1543C33.4757 18.5833 33.2717 14.7189 33.2717 14.7189C33.2717 10.7143 26.5378 5.60011 22.4056 5.34503C21.7679 5.16648 21.1047 5.06445 20.416 5.06445C16.3476 5.06445 13.0444 8.36764 13.0444 12.436V14.6934C12.8404 15.9178 12.7256 17.0146 12.6236 17.7798C12.1389 21.2871 8.874 21.1595 7.30531 22.9705C5.73661 24.7816 7.30531 26.3503 7.06299 29.0158C6.86786 31.1214 5.23922 31.3382 3.90137 33.2053C5.98276 34.1172 7.4558 35.8747 8.874 37.5977C9.09464 37.8655 9.314 38.1372 9.53464 38.405C12.8327 38.8093 16.1168 38.8093 16.1168 38.8093C16.1168 38.8093 18.4163 39.4916 21.4312 39.9915C21.4771 39.2136 22.5944 38.5746 23.1899 39.2977H23.1938Z" fill="#292560"/>
<path d="M4.48923 31.9478C4.4127 31.9478 4.33618 31.9096 4.27241 31.8458C4.17038 31.731 4.19589 31.5525 4.31067 31.4632C5.59879 30.4046 6.19821 29.6904 6.60633 27.2928C6.75937 26.3745 6.64459 25.5583 6.54256 24.8441C6.38951 23.6835 6.23647 22.5867 7.30778 21.5281C7.91995 20.9287 8.72343 20.5844 9.5014 20.2655C10.8915 19.6788 12.1924 19.1304 12.6133 17.1919C12.6515 16.9751 12.7026 16.7328 12.7663 16.4777C12.8811 15.8783 13.0342 15.1513 13.2255 14.3606L13.3785 12.2817C13.6591 8.34088 17.1408 5.36928 21.1327 5.66262C21.7959 5.71363 22.4463 5.85392 23.0713 6.07073C23.2115 6.12175 23.2881 6.27479 23.237 6.41508C23.186 6.55537 23.033 6.63189 22.8927 6.58088C22.306 6.37682 21.7066 6.24928 21.0944 6.19827C17.3959 5.93044 14.182 8.67247 13.9142 12.32L13.7611 14.4244V14.4626C13.5698 15.2406 13.4168 15.9803 13.302 16.5797C13.251 16.8475 13.1999 17.0899 13.1489 17.3067C12.677 19.5258 11.1084 20.189 9.71821 20.7757C8.95299 21.0945 8.22604 21.4006 7.70314 21.9362C6.82314 22.8035 6.93792 23.6452 7.09096 24.7931C7.19299 25.5455 7.30778 26.4 7.14198 27.3948C6.73386 29.8562 6.08343 30.7362 4.65502 31.8968C4.60401 31.9351 4.55299 31.9606 4.48923 31.9606V31.9478Z" fill="#292560"/>
<path d="M21.5026 6.58085C23.4284 6.52983 26.2087 7.57563 28.5809 9.22085C31.1061 10.9681 32.7003 13.0469 32.8534 14.7814C32.8661 14.8197 33.3635 18.582 31.6928 22.1913C30.4939 24.793 32.56 27.1779 34.218 29.1037C34.9705 29.9582 35.6719 30.7872 35.9652 31.4759C36.7636 33.3698 37.0187 34.9921 36.7266 36.3159C36.9128 36.3784 37.0748 36.5008 37.1972 36.659C37.5977 35.1847 37.3541 33.3775 36.4626 31.2578C36.1438 30.4799 35.4041 29.6381 34.6261 28.7326C32.9809 26.8323 31.1316 24.677 32.1774 22.4068C33.9119 18.6445 33.4145 14.8439 33.389 14.7036C33.2232 12.7906 31.578 10.6225 28.887 8.76044C26.3873 7.0387 23.5432 5.99291 21.4899 6.03117C21.3368 6.03117 21.222 6.1587 21.222 6.31175C21.222 6.46479 21.3623 6.57957 21.5026 6.57957V6.58085Z" fill="#292560"/>
<path d="M21.0626 40.8218C20.8063 40.818 20.5486 40.818 20.291 40.8192C20.5525 40.8562 20.8318 40.8945 21.1264 40.9315C21.1034 40.8958 21.0805 40.8601 21.0613 40.8218H21.0626Z" fill="#292560"/>
<path d="M17.0835 29.2568C11.5765 29.2568 6.5273 30.4046 2.56348 32.3177C2.59664 32.3802 2.63235 32.4414 2.66678 32.5039C3.04684 32.4235 3.46771 32.5345 3.74191 32.9426C4.87953 34.644 6.22632 36.1871 7.72487 37.5798C9.49252 39.2251 11.4783 40.6675 13.6081 41.8676C13.7229 41.5743 13.9601 41.3269 14.2662 41.2516C14.3172 40.8486 14.585 40.4647 14.9995 40.3895C17.299 39.975 19.7311 41.0348 21.7921 41.9594C22.4234 42.2426 23.0649 42.5219 23.7013 42.8126C23.7128 42.74 23.7421 42.666 23.7817 42.5933C23.6707 42.527 23.5623 42.4619 23.4565 42.3969C22.7359 41.9594 22.8201 40.7313 23.7001 40.5323C24.9767 40.2428 26.5314 40.3486 27.9177 40.8001C27.9343 40.6879 27.9534 40.5744 27.9789 40.4609C28.1001 39.9227 28.7212 39.6051 29.2339 39.748C30.2835 40.04 31.0716 40.818 31.3726 41.726C31.4441 41.7311 31.5155 41.7337 31.5869 41.735C31.4963 41.1713 31.8203 40.5272 32.5574 40.5272C32.847 40.5272 33.0727 40.6267 33.2347 40.7797C33.3724 40.6075 33.5101 40.4379 33.6619 40.2938C34.1516 39.8296 34.7766 39.4942 35.2038 38.9636C35.6132 38.4547 35.6693 37.7482 36.0698 37.2202C36.4039 36.7789 36.9421 36.5481 37.4663 36.8542C37.6219 36.9447 37.7545 37.0926 37.8464 37.2648C37.8872 37.2215 37.928 37.1794 37.9688 37.136C34.2843 32.4822 26.3158 29.2555 17.0848 29.2543L17.0835 29.2568Z" fill="white"/>
<path d="M38.1181 37.0199C36.2586 34.672 33.338 32.685 29.6726 31.2731C25.9231 29.8307 21.5728 29.0668 17.0912 29.0655H17.0784C11.7028 29.0668 6.65616 30.1317 2.4819 32.1455L2.30334 32.2322L2.39645 32.4082C2.42323 32.4592 2.45384 32.5102 2.48062 32.5613C2.60433 32.5128 2.73824 32.4847 2.87216 32.4809C2.85813 32.4554 2.84282 32.4299 2.82879 32.4044C6.86532 30.4977 11.9183 29.4494 17.0861 29.4481C25.6909 29.4494 33.6275 32.3547 37.5072 36.8835C37.6985 37.011 37.8515 37.224 37.9293 37.4599C37.9893 37.3974 38.0492 37.3337 38.1091 37.2712L38.2227 37.1513L38.1193 37.0212L38.1181 37.0199Z" fill="#292560"/>
<path d="M16.2413 19.9921L12.99 31.796L21.8183 34.2277L25.0696 22.4239L16.2413 19.9921Z" fill="white"/>
<path d="M23.3774 28.6191L25.0736 22.4591L19.462 20.916L17.0898 22.5229C17.8296 25.2649 20.0232 27.4841 23.3646 28.6191H23.3774Z" fill="#292560"/>
<path d="M23.3136 25.9919C19.2452 25.9919 15.942 22.6887 15.942 18.6203V14.0035C15.942 9.93509 19.2452 6.6319 23.3136 6.6319C27.382 6.6319 30.6852 9.93509 30.6852 14.0035V18.6203C30.6852 22.6887 27.382 25.9919 23.3136 25.9919Z" fill="white"/>
<path d="M22.778 6.17273C18.3653 6.17273 14.7815 9.62896 14.7815 13.8759V15.4701C17.8806 17.4342 22.1021 17.1026 24.8313 14.4753L28.3641 11.0574C28.7977 10.6365 29.1803 10.1774 29.4864 9.69273C28.058 7.57563 25.5838 6.15997 22.7653 6.15997L22.778 6.17273Z" fill="#292560"/>
<path d="M17.1664 20.0997C16.0441 20.6099 14.7177 20.0997 14.2076 18.9774L14.0545 18.6458C13.5444 17.5235 14.0545 16.1971 15.1769 15.687C16.2992 15.1768 17.6256 15.687 18.1357 16.8093L18.2887 17.1409C18.7861 18.2632 18.2887 19.5896 17.1664 20.0997Z" fill="white"/>
<path d="M18.0464 29.1293C15.5977 29.1293 13.3021 29.4481 11.3635 30.0093C11.9119 34.4985 15.2151 37.9548 19.2325 37.9548C23.2499 37.9548 26.145 34.9067 26.9612 30.8255C24.6656 29.7797 21.5282 29.142 18.0464 29.142V29.1293Z" fill="white"/>
<path d="M16.8092 19.0157H16.7965C16.6434 19.0157 16.5287 18.8754 16.5414 18.7223C16.6434 17.2302 15.7762 16.8348 15.7379 16.822C15.5977 16.7583 15.5339 16.6052 15.5977 16.4649C15.6614 16.3246 15.8145 16.2609 15.9548 16.3246C16.0058 16.3501 17.2174 16.873 17.0898 18.7733C17.0898 18.9136 16.9623 19.0284 16.822 19.0284L16.8092 19.0157Z" fill="#292560"/>
</g>
<defs>
<clipPath id="clip0_8_298">
<rect width="44" height="44" fill="white"/>
</clipPath>
</defs>
</svg>
