<?xml version="1.0" encoding="UTF-8"?>
<svg id="Calque_1" xmlns="http://www.w3.org/2000/svg" viewBox="0 0 233.69 236.79">
	<defs>
		<style>
			.cls-1 {
				fill: #fff;
			}

			.cls-2 {
				fill: #fff;
			}
		</style>
	</defs>
	<path class="cls-2" d="M110.76,181.35c.15.16.31.32.46.47,1.57,1.36,3.05,2.83,4.57,4.24,1.92,1.77,4.04,3.29,5.95,5.06l-.02-.02c2.81,1.63,5.43,3.57,8.36,5.01,2,.99,4.01,1.95,6.03,2.89.17.11.33.23.5.35.83.61,1.84.8,2.74,1.24,2.86.86,5.72,1.75,8.65,2.37.63.17,1.29.09,1.93.3,1.39.46,1.66.24,1.66-1.21,0-8.55,0-17.1.02-25.65,0-1.05-.28-2.15.32-3.15,7.03-.11,14.07,0,21.1-.06.87,0,1.17.42,1.21,1.18.02.37.01.75.01,1.13,0,16.32,0,32.64,0,48.96,0,.77.2,1.62-.53,2.24-.56.32-1.18.24-1.78.24-4.02,0-8.05.21-12.05-.06-3.05-.21-6.13-.31-9.15-.89-5.14-.61-10.17-1.77-15.12-3.26-3.06-.84-5.99-2.02-8.92-3.22-.22-.09-.44-.15-.67-.19-3.84-1.65-7.6-3.46-11.16-5.67-1.73-1.08-3.48-2.13-5.1-3.39-3.14-2.37-6.11-4.97-9.23-7.37-2.44-1.94-4.47-4.3-6.57-6.58-.69-.74-1.5-1.39-2.02-2.29-.49-1.25-1.54-2.1-2.32-3.15-.92-1.23-1.86-2.45-2.77-3.7-.08-.1-.16-.21-.22-.32-.27-.66-.69-1.21-1.23-1.68-3.82-5.58-6.74-11.62-9.25-17.87-.05-.13-.06-.27-.08-.41-.53-2.09-1.41-4.06-1.97-6.14-.06-.13-.12-.26-.18-.39-.33-1.31-.59-2.64-1.09-3.92-.06-.15-.1-.31-.13-.47-.37-2.35-.91-4.66-1.27-7-.6-3.88-1.1-7.76-1.02-11.69.02-1.03,0-2.06,0-3.09.03-1.8.25-2.04,2.03-2.05,4.82-.02,9.64,0,14.46,0,1.22,0,2.43-.03,3.65.01,1.42.04,1.78.33,1.73,1.76-.11,3.1.71,6.11.69,9.2.33.59.36,1.25.42,1.9.29,3.15,1.13,6.19,1.98,9.22,1.57,5.65,4.07,10.9,6.97,15.97,1.2,1.3,1.95,2.92,3.1,4.27.09.1.16.2.23.31.43.8.98,1.5,1.65,2.11.8,1.19,1.82,2.2,2.72,3.3.3.36.58.71.69,1.17Z"/>
	<path class="cls-1" d="M228.91,160.63c-.15.2-.3.4-.45.61-1.03,1.58-2.44,2.82-3.73,4.17-4.53,4.73-9.41,9.09-14.49,13.23-.3.24-.63.39-.94.6h0c-2.13,1.96-4.49,3.65-6.8,5.4-.88.66-1.43.53-2.08-.34-3.87-5.21-7.66-10.49-11.5-15.73-.91-1.24-.83-1.8.42-2.65,1.78-1.21,3.38-2.67,5.21-3.8.82-.28,1.4-.91,2.06-1.43,4.24-3.38,8.14-7.12,11.95-10.98.2-.2.37-.42.5-.67,1-1.39,2.33-2.46,3.44-3.75,1.08-1.33,2.15-2.66,3.39-3.84.37-.35.71-.75,1.3-.64,2.3,1.45,4.2,3.39,6.27,5.12,3.13,2.63,6.23,5.3,9.34,7.96,1.14.97,1.17,1.23.2,2.37-1.3,1.52-2.58,3.05-4.09,4.38Z"/>
	<path class="cls-1" d="M127.96,119.57c-.6-.12-.88.5-1.39.6-.46.54-1.12.75-1.71,1.08h0c-1.21,1.14-2.62,2.06-3.68,3.36h0c-.78,1.11-1.49,2.27-2.29,3.38h.02c-.15.4-.17.88-.62,1.13-.26.2-.21.48-.22.75-.16.51-.05,1.11-.5,1.53-.07.06-.08.14-.04.22-.2.48-.07,1.06-.49,1.47-.03.16-.06.32-.08.47-.13.51-.14,1.06-.49,1.49-.02.09-.03.18-.05.27-.27.54-.1,1.22-.53,1.71-.28.11-.14.67-.61.56-.44-.41-.33-1.01-.5-1.51-.03-.15-.05-.31-.08-.46-.34-.43-.34-.97-.49-1.46-.03-.17-.06-.33-.09-.5-.4-.4-.26-.98-.49-1.44.03-.09.02-.17-.04-.25-.44-.42-.33-1.01-.5-1.52.04-.07.02-.13-.05-.17-.36-.33-.39-.81-.51-1.24-.59-1.09-1.18-2.18-1.77-3.27-.41-.41-.72-.91-1.09-1.36-.64-.68-1.28-1.36-1.93-2.04-.3-.18-.66-.27-.89-.55l-2.52-1.69c-.38-.18-.8-.27-1.14-.52l-.1-.06h-.12c-.4-.16-.86-.17-1.19-.48-.15-.03-.31-.06-.46-.09-.42-.13-.87-.17-1.23-.46-.17-.03-.35-.06-.52-.09-.48-.16-1.02-.16-1.44-.5l-.45-.08c-.51-.17-1.11-.06-1.52-.5l-.11-.06h-.12c-.47-.2-1.07-.05-1.45-.51l-.04-.02c-.1-.53.45-.33.63-.55.18-.03.36-.06.53-.09.36-.29.81-.32,1.22-.45.16-.03.31-.05.47-.08.41-.42,1-.3,1.49-.49l.49-.08c.43-.32.96-.32,1.44-.49.17-.03.35-.06.52-.09.33-.29.78-.29,1.15-.47h0c2.07-.81,3.87-2.08,5.66-3.36h0c.21-.53.68-.83,1.1-1.17.18-.19.36-.37.55-.56.34-.51.79-.92,1.16-1.39v.02c.16-.29.26-.63.5-.88.39-.73.78-1.47,1.17-2.2.18-.39.17-.85.49-1.18.03-.15.06-.3.09-.46.12-.42.17-.87.46-1.23.03-.17.06-.35.09-.52.17-.48.16-1.01.49-1.44.03-.16.06-.32.08-.49.18-.49.07-1.08.49-1.49.03-.15.05-.3.08-.45.13-.43.14-.92.54-1.24.39-.02.5.27.6.56.4.39.26.97.49,1.42h0c.44.52.37,1.19.54,1.79-.04.07-.03.12.04.17.3.53.37,1.14.54,1.71h0c1.17,4.11,3.79,7.21,6.99,9.89.28.59.7,1.01,1.41,1.05,1.39.76,2.85,1.36,4.3,1.98.05.06.12.08.19.04.41.14.86.17,1.22.46.18.03.36.05.54.08.47.18,1,.17,1.42.49.18.02.35.05.53.07.46.22,1.05.08,1.45.5.37.18.73.36,1.1.54-.41.61-1.15.31-1.67.63-.09.02-.19.03-.28.05-.43.34-.97.35-1.46.5-.17.03-.33.06-.5.09-.39.4-.98.25-1.42.49h-.14s-.13.05-.13.05c-.4.43-.99.3-1.47.5h-.12s-.1.05-.1.05c-.37.46-.97.29-1.42.54Z"/>
	<path class="cls-2" d="M161.9,89.47c-.03,1.62.08,3.23.58,4.79.09,3.03.18,6.06.25,9.08,0,.44.18.94-.25,1.31-.25.19-.53.14-.81.14-6.59,0-13.18,0-19.76,0-.28,0-.56.04-.82-.12h0c-.36-.45-.27-.98-.27-1.49.04-4.31-.29-8.58-1.16-12.8-.14-.69.03-1.41-.23-2.08-.57-2.15-1.15-4.3-1.72-6.45-.96-2-1.62-4.11-2.38-6.18-.12-.31-.23-.6-.46-.84-.32-.68-.51-1.43-1.03-2.01-1.75-4.25-4.26-8.06-6.96-11.75-.66-.9-1.39-1.75-2.09-2.62-2.86-3.71-6.08-7.06-9.87-9.83-.09-.09-.19-.19-.28-.28-.35-1.08-1.41-1.43-2.19-2.04-4.88-3.8-10.29-6.65-16-8.99-3.46-1.42-7.02-2.51-10.65-3.4-1.04-.26-2.1-.36-3.13-.68-1.3-.4-1.54.44-1.54,1.58.03,9-.01,18.01.05,27.01,0,1.33-.31,1.75-1.69,1.73-6.1-.08-12.19-.06-18.29,0-1.22.01-1.72-.24-1.72-1.61.05-16.56.05-33.11,0-49.67,0-1.36.46-1.66,1.71-1.64,3.52.07,7.04-.07,10.55.05,4.1.14,8.23.21,12.27.91,7.43,1.29,14.71,3.18,21.68,6.17,2.64,1.13,5.16,2.48,7.81,3.58.98.08,1.65.84,2.53,1.13,4.39,2.44,8.47,5.34,12.42,8.43,2.21,2.05,4.45,4.08,6.63,6.17,3.2,3.07,6.09,6.42,8.8,9.93,3.31,4.27,6.16,8.83,8.56,13.66.53.73.85,1.58,1.32,2.34.19.37.38.75.56,1.12,1.48,3.56,2.94,7.12,4.08,10.8,1.22,3.94,2.19,7.95,2.96,12l.53,2.55Z"/>
	<path class="cls-1" d="M166.41,157.26c-2.22.33-4.21,1.44-6.37,1.98-2.47.61-4.87,1.52-7.43,1.79-.3.03-.57.29-.85.44-3.52.37-6.98,1.1-10.53,1.31-2.76.16-5.51.11-8.27.17-.81.02-.89-.44-.89-1.08.02-6.78.03-13.57.04-20.35.86-.3,1.75-.14,2.63-.12,1.68.04,3.33-.14,4.98-.42.36-.02.72-.04,1.08-.06,5.36-.66,10.61-1.85,15.79-3.36,2.3-.49,4.36-1.62,6.48-2.56,4.23-1.88,8.17-4.26,11.95-6.92.25-.18.44-.34.42-.66,3.33-2.65,6.58-5.38,9.49-8.5,5.41-5.79,9.83-12.22,13.04-19.47.19-.42.37-.85.55-1.28.36-.94.65-1.91,1.14-2.81,1.13-3.22,2.26-6.44,2.84-9.82,1.41-3.83,1.3-3.98-2.64-3.98-8.44,0-16.88-.02-25.32.03-1.26,0-1.59-.38-1.58-1.6.05-6.28.06-12.56,0-18.85-.01-1.27.4-1.57,1.62-1.56,16.69.04,33.38.04,50.07,0,1.23,0,1.6.31,1.58,1.56-.1,4.97.03,9.94-.15,14.9-.12,3.27-.52,6.53-1.08,9.76-.46.89-.33,1.9-.53,2.84-.02.18-.03.35-.05.53-.58,1.95-.85,3.97-1.45,5.92-.47,1.5-.89,3.02-1.32,4.53-.99,3.7-2.53,7.18-4.15,10.62-4.5,9.56-10.56,18.05-17.93,25.6-2.12,2.17-4.48,4.11-6.74,6.15-.21.19-.47.31-.53.62-3.12,2.17-6.1,4.53-9.34,6.52-1.02.63-2.01,1.29-3.02,1.94-1.88.44-3.37,1.69-5.08,2.49-2.79,1.3-5.6,2.52-8.44,3.71Z"/>
	<path class="cls-1" d="M67.64,105.5c-.29.18-.57.36-.86.54-2.68,1.14-4.85,3.06-7.2,4.71-1.13.8-2.17,1.73-3.26,2.6-1.68,1.55-3.3,3.16-4.91,4.78-1.15,1.16-2.2,2.42-3.18,3.73-4.09,5.19-7.59,10.73-10.17,16.83-1.46,2.38-2.12,5.08-2.94,7.7-.74,2.36-1.23,4.8-1.77,7.21-.37,1.64-.07,1.96,1.67,1.96,8.95,0,17.91.03,26.86-.03,1.26,0,1.58.36,1.57,1.59-.07,6.7-.05,13.41-.06,20.11-.51.02-1.03.07-1.54.07-16.64,0-33.27-.01-49.91.03-1.33,0-1.77-.32-1.73-1.7.09-3.89-.1-7.78.07-11.67.2-4.66.69-9.3,1.51-13.91,1.05-5.92,2.78-11.62,4.85-17.24.59-1.59,1.56-3.05,1.76-4.79.57-1.12,1.13-2.25,1.7-3.37.35-.29.3-.79.56-1.12h0c.79-1.29,1.47-2.65,2.23-3.95.94-1.5,1.87-3,2.81-4.51,1.21-1.21,2.19-2.58,2.82-4.19.16-.12.33-.25.49-.37.72-.63,1.1-1.52,1.74-2.21h0c.97-1.1,1.91-2.22,2.82-3.38,4.79-5.26,9.97-10.08,15.84-14.13.19-.13.35-.31.52-.47,1.43-.45,2.51-1.5,3.75-2.27,3.15-1.96,6.48-3.57,9.72-5.36,2.92-1.2,5.84-2.4,8.77-3.6,1.81-.48,3.6-1.01,5.33-1.74,4.42-1.33,8.96-2.1,13.51-2.81,3.92-.12,7.8-.75,11.74-.56,1.78.09,1.78.02,1.78,1.86,0,6.27-.02,12.54.02,18.81,0,1.05-.29,1.4-1.34,1.33-3.23-.21-6.43.22-9.64.54-1.04.2-2.14.03-3.13.52l-.13.02h-.13c-.84.23-1.77.03-2.56.52-6.05,1.25-11.77,3.42-17.25,6.26-.94.49-1.97.85-2.72,1.65Z"/>
	<path class="cls-1" d="M27.96,54.84c.95-.65,1.94-1.25,2.83-1.97.79-.64,1.26-.43,1.82.3,1.43,1.88,2.64,3.93,4.3,5.63,1.69,2.96,3.88,5.57,5.88,8.31,2.22,3.04,2.25,2.93-.71,5.11-8.42,6.19-16.03,13.27-22.83,21.2-.49.57-1.02,1.09-1.52,1.65q-1.32,1.48-2.85.18c-2.59-2.21-5.18-4.42-7.78-6.64-.66-.51-1.24-1.11-1.91-1.61-1.43-1.38-2.88-2.74-4.48-3.92-.74-.55-.98-1.06-.38-1.82,7.38-8.94,15.73-16.89,24.76-24.14.22-.17.41-.38.61-.57.65-.7,1.5-1.14,2.24-1.72Z"/>
	<path class="cls-2" d="M89.01,229.06c-1.69,1.97-3.38,3.94-5.06,5.9-.18.14-.38.26-.53.43q-1.66,1.83-3.57.19c-1.44-1.24-2.89-2.48-4.33-3.72-3.78-3.68-7.59-7.32-11.1-11.26-2.32-2.61-4.61-5.25-6.91-7.88-1.04-1.4-2.08-2.79-3.12-4.19-.56-.86-1.09-1.75-1.79-2.51-.6-.66-.43-1.08.24-1.59,2.2-1.65,4.47-3.2,6.62-4.92h0c.9-.72,1.95-1.21,2.8-2.01,2.21-1.64,4.42-3.28,6.62-4.94.7-.53,1.14-.31,1.61.35,3.24,4.53,6.76,8.83,10.5,12.95,4.24,4.68,8.75,9.08,13.63,13.1,1.32,1.71,1.27,1.67-.26,3.56-1.77,2.18-3.8,4.16-5.33,6.54Z"/>
	<path class="cls-2" d="M155.43.56c1.02,1.35,2.33,2.36,3.71,3.3,5.81,5.15,11.21,10.69,16.24,16.59.36.42.64.92,1.19,1.16,2.33,2.92,4.66,5.85,6.99,8.77.94,1.81.93,1.79-.96,3.17-4.79,3.49-9.56,7.01-14.35,10.51-1.58,1.15-1.59,1.14-2.69-.44-2.98-4.28-6.24-8.35-9.85-12.12-1.58-1.6-3.17-3.2-4.75-4.81-.17-.93-1.09-1.2-1.65-1.77-2.24-2.26-4.43-4.58-7.09-6.39-1.91-1.8-1.93-1.82-.18-3.9,3.81-4.52,7.63-9.03,11.45-13.54.4-.34.74-.74,1.14-1.08.4,0,.49.43.79.56Z"/>
</svg>