<?xml version="1.0" encoding="UTF-8"?>
<svg id="Calque_2" data-name="Calque 2" xmlns="http://www.w3.org/2000/svg" viewBox="0 0 742.3 419.64">
  <defs>
    <style>
      .cls-1 {
        fill: none;
        stroke: #1f2327;
        stroke-miterlimit: 10;
        stroke-width: 4px;
      }

      .cls-2 {
        fill: #c5d4cb;
      }

      .cls-3 {
        fill: #1f2327;
      }
    </style>
  </defs>
  <g id="Calque_1-2" data-name="Calque 1">
    <path class="cls-2" d="M700.3,42v335.64H42V42h658.3M742.3,0H0v419.64h742.3V0h0Z"/>
    <rect class="cls-1" x="42.15" y="42.58" width="658.06" height="334.78"/>
    <g>
      <path class="cls-3" d="M14.13,15.81c5.96,3.53,11.13,7.98,16.12,12.7,4.92,4.78,9.58,9.77,13.35,15.58-5.96-3.53-11.13-7.97-16.12-12.7-4.92-4.79-9.57-9.77-13.35-15.58h0Z"/>
      <path class="cls-3" d="M728.8,15.81c-3.78,5.81-8.43,10.79-13.35,15.58-4.98,4.72-10.15,9.17-16.12,12.7,3.77-5.81,8.43-10.8,13.35-15.58,4.99-4.72,10.16-9.16,16.12-12.7h0Z"/>
      <path class="cls-3" d="M728.8,404.23c-5.96-3.53-11.13-7.98-16.12-12.7-4.92-4.78-9.58-9.77-13.35-15.58,5.96,3.53,11.13,7.97,16.12,12.7,4.92,4.79,9.57,9.77,13.35,15.58h0Z"/>
      <path class="cls-3" d="M14.13,404.23c3.78-5.81,8.43-10.79,13.35-15.58,4.98-4.72,10.15-9.17,16.12-12.7-3.77,5.81-8.43,10.8-13.35,15.58-4.99,4.72-10.16,9.16-16.12,12.7h0Z"/>
    </g>
  </g>
</svg>