<?xml version="1.0" encoding="UTF-8"?><svg id="Calque_2" xmlns="http://www.w3.org/2000/svg" viewBox="0 0 107.57 154.96"><defs><style>.cls-1{fill:#1d8dd1;}</style></defs><g id="Calque_1-2"><path class="cls-1" d="M83.29,80.2c-.73-6.52-6.72-14.52-13.62-18.21-3.28-1.76-8.2-3.33-12.99-.86-1.34.69-2.85,2.58-4.07,4.1-1.3,1.64-2.02,2.5-2.78,2.7-.88.23-1.89-.17-3.07-.63-.95-.37-2.02-.79-2.96-.82-6.72-.25-12.98,5.92-13.21,10.92-.16,3.58,2.79,5.73,8.3,6.03l.51.03,5.64,10.64-1.68-.16c-.63-.06-1.26-.09-1.89-.09-9.09,0-19.08,6.1-22.1,13.81-1.58,4-1.86,9.99,5.73,15.78,7.95,6.05,16.74,6.32,24.09.73.69-.52,1.55-1.5,2.38-2.46,1.2-1.37,2.34-2.66,3.37-3.15,1.31-.63,3.05-1.03,4.9-1.46,2.05-.47,4.16-.95,5.95-1.78,12.96-6.02,19.34-18.82,17.49-35.13ZM49.64,116.17c-1.8,4.22-6.55,6.27-11.23,6.27-1.68,0-3.34-.25-4.86-.78-6.34-2.15-9.73-6-9.3-10.56.51-5.43,6.4-10.3,13.71-11.33,5.54-.79,7.51-.59,9.66,4.82.04.09,3.29,8.68,2.04,11.59ZM76.36,96.92c-3.58,8.1-10.67,13.85-18.96,15.38l-.49.09-2.24-2.36-5.29-15.5,1.78.64c1.68.61,5.28-1.18,8.55-4.24,2.97-2.8,4.74-5.84,4.28-7.4-.07-.24-.29-1-2-1.32-1.5-.27-2.62.98-4.27,3.07-1.85,2.34-4.14,5.25-8.08,4.09l-.17-.05-.14-.11c-1.86-1.49-2.84-3.54-3.8-5.52-1.53-3.2-2.74-5.72-7.18-5.28l-.77.07-.2-.75c-.51-1.94.88-3.75,2.36-4.79,1.84-1.3,3.88-1.59,5.18-.7,1.19.8,1.91,2.56,2.74,4.62,1.57,3.86,2.78,6.33,5.39,5.6,2.02-.56,1.91-1.81,1.18-4.53-.28-1.06-.55-2.06-.43-2.93.89-7.1,4.56-8.94,6.66-9.4,4.72-1.03,11,2.56,14.61,8.36,4.25,6.83,4.72,15.2,1.3,22.96Z"/><path class="cls-1" d="M107.55,90.88c-.62,19.11-11.51,35.67-29.15,44.31l-.4.19-.09.43c-.3,1.36-.19,3.57-.06,6.12.26,5.29.62,12.54-3,13-.71.09-1.06-.15-1.27-.34-1.51-1.4-1.24-6.41-1.07-9.73.09-1.66.16-3.09.06-4.04-.24-2.26-1.77-6-3.12-9.29-.83-2.07-1.88-4.64-1.88-5.15.45-1.95,1.45-2,1.83-2h.04c1.99,0,4.97,2.81,5.5,5.16l.24,1.08,1.01-.44c13.64-6.04,23.15-19.05,25.43-34.81,2.33-16.09-3.22-31.6-14.85-41.49-1.61-1.37-5.85-3.72-9.6-5.8-2.02-1.11-4.3-2.38-4.75-2.74-1.11-1.8.67-4.29,2.26-6.48.68-.95,1.32-1.84,1.73-2.67,4.09-8.35,2.76-14.62-4.17-19.72-1.97-1.46-4.53-2.53-7.22-3.66-6.07-2.55-11.8-4.96-11.51-11.55.43-.63,1.1-1.08,1.88-1.2.16-.03.34-.05.5-.05.64,0,1.26.23,1.74.64.27.24.55.75.84,1.3.48.88,1.07,1.97,2.08,2.82,1.92,1.62,4.5,2.65,7.24,3.74,2.33.92,4.72,1.88,6.67,3.22,10.46,7.18,12.24,17.02,5.44,30.08l-.4.77.75.43c17.47,9.98,27.93,28.33,27.3,47.88Z"/><path class="cls-1" d="M14.73,95.56c-7.27,14.98-14.13,29.13-5.06,48.25.34.72.93,1.58,1.61,2.55,1.21,1.77,2.78,4.04,2.78,5.59,0,.41-.11.77-.36,1.05-.99,1.11-1.77,1.06-2.27.93-4.54-1.21-9.77-16.16-10.46-19.55-3.31-16.03,2.54-27.83,8.73-40.32,5.75-11.62,11.71-23.64,9.28-39.1-.85-5.39-3.17-10.82-5.42-16.06-3.2-7.49-6.22-14.56-5.43-21.58.37-3.21,2.46-9.3,5.7-9.3.08,0,.16,0,.24,0,1.28.13,1.57.62,1.67.77.72,1.2-.42,3.96-1.17,5.78-.43,1.02-.76,1.84-.86,2.46-1.09,6.74,1.99,14.3,5.25,22.31,2.7,6.64,5.5,13.52,5.84,20.02.74,13.9-4.76,25.23-10.06,36.18Z"/></g></svg>