<?xml version="1.0" encoding="UTF-8"?><svg id="Calque_2" xmlns="http://www.w3.org/2000/svg" viewBox="0 0 141.95 99.04"><defs><style>.cls-1{fill:#1d8dd1;}</style></defs><g id="Calque_1-2"><g id="_6on7v5.tif"><path class="cls-1" d="M129.42,45.85c-.56-.64-1.46-1.44-2.42-2.28-2.12-1.86-4.3-3.78-4.52-5.47-.32-2.51,1-4.22,2.28-5.86.58-.75,1.19-1.53,1.64-2.39,2.71-5.19,2.99-11.39.78-16.99-2.16-5.46-6.47-9.67-11.82-11.55-8.39-2.94-17.14-.65-22.83,5.96-5.53,6.41-6.47,15.13-2.46,22.74.38.71.95,1.43,1.55,2.19,1.43,1.8,3.05,3.85,2.28,6.36-.49,1.57-2.01,2.71-3.48,3.81-.79.58-1.53,1.14-2.03,1.7-4.59,5.08-8.14,11.55-10.87,19.77l-.07.2-.18.11c-.81.53-11.3.26-11.87.16-2.19-.42-2.72-2.57-3.18-4.46-.18-.73-.35-1.44-.6-1.99-1.48-3.27-3.94-7.89-6.45-11.06-.64-.8-1.98-2.05-3.4-3.37-2.86-2.65-4.61-4.35-4.8-5.41-.35-1.98,1.15-3.91,2.6-5.77.69-.89,1.34-1.72,1.74-2.49,3.15-6.21,2.91-13.56-.64-19.66C47.2,4.13,41.03.35,34.21.03c-6.83-.33-13.11,2.48-17.23,7.7-4.18,5.28-5.48,12.14-3.56,18.8.41,1.42,1.66,3.36,2.87,5.24,1.5,2.34,2.8,4.36,2.73,5.66-.12,2.15-2.33,3.97-4.28,5.57-.85.69-1.65,1.35-2.22,1.97C4.32,53.91-5.47,78.25,3.7,89.59c6.17,7.62,25.16,11.44,41.48,8.33,11.02-2.1,18.2-6.8,20.22-13.24,1.14-3.64.89-6.76.64-10.06-.13-1.58-.26-3.21-.25-4.97v-.61h9.38l.16.11c.76.56.89.81.89,1.69,0,1.89-.17,3.56-.34,5.19-.44,4.33-.79,7.74,2.35,12.35,4.39,6.46,18.46,12.09,36.82,10.34,13.03-1.23,22.55-6.02,25.48-12.8,4.8-11.1-3.38-31.14-11.1-40.07ZM18.55,17.97c.56-5.7,5.68-11.55,10.96-12.51,1.05-.19,2.13-.28,3.22-.28,6.71,0,13.68,3.62,15.1,10.62,1.92,9.48-2.47,14.26-5.26,16.27-2.63,1.89-5.91,2.85-9.2,2.86-2.77,0-5.54-.69-7.94-2.06-5.02-2.88-7.53-8.32-6.89-14.9ZM59.72,84.17c-2.94,7.35-16.6,8.84-20.72,9.12-.72.04-2.69.17-5.34.17-9.17,0-26.47-1.38-28.07-11.66-1.04-6.65.7-15.25,4.63-23.01,4.15-8.18,10.13-14.22,16.41-16.55,4.8-1.78,9.65-1.56,14.4.66,8.65,4.05,14.61,13.64,17.08,20.64l.29.82h-29.31l.8-1.01c1.16-1.43,2.79-2.91,4.36-4.34,1.93-1.76,3.93-3.57,5.1-5.33.8-1.19.04-2.21-.32-2.6-.83-.87-2.3-1.38-3.55-.71l-14.8,14.79.22,3.28c1.55,1.11,4.25,4.05,7.09,7.15,2.95,3.22,6.62,7.22,7.69,7.52.82.22,1.79-.05,2.53-.71.69-.62,1.03-1.45.91-2.22-.19-1.24-2.95-3.77-4.97-5.61-1.42-1.3-2.75-2.52-3.4-3.4l-.22-.31.93-1.84h27.24l.19.22c2.58,3.18,2.06,11.81.83,14.91ZM95.05,13.28c1.55-3.04,6.12-7.21,9.46-7.82,1.34-.25,2.61-.36,3.81-.36,8.11,0,12.9,5.19,14.64,10.17,2.01,5.76.72,13.81-6.85,17.87-2.4,1.29-4.96,1.91-7.48,1.91-3.92,0-7.76-1.53-10.78-4.48-4.78-4.68-5.86-11.31-2.8-17.29ZM134.2,85.63c-3.75,5.04-14.65,7.19-25.38,7.19-9.68,0-19.22-1.75-23.26-4.73-5.56-4.1-5.46-12.34-2.9-18.68l.15-.38h27.37l.94,1.86-.25.31c-.69.87-2.1,2.1-3.58,3.39-2.23,1.94-5.01,4.36-5.38,5.68-.26.97.06,1.89.89,2.46.86.59,2.42.87,4-.29,1.54-1.12,14.41-13.98,15.01-15.21.22-.77.08-1.8-.35-2.63-1.62-1.01-4.45-4.08-7.43-7.35-2.68-2.93-6.02-6.57-7-6.84-.86-.24-2.96-.59-3.77,1.2-.86,1.93,1.74,4.32,4.26,6.62,2.02,1.86,3.93,3.61,4.35,5.35l.18.76h-26.46c-.49,0-.88-.22-1.1-.61-.96-1.68,2.13-7.1,2.76-8.17,3.48-5.91,10.71-13.06,17.25-14.69,14.16-3.51,26.5,12.02,29.97,24.59.67,2.41,3.78,14.72-.26,20.15Z"/></g></g></svg>