<?xml version="1.0" encoding="UTF-8"?><svg id="Calque_2" xmlns="http://www.w3.org/2000/svg" viewBox="0 0 163.17 135.3"><defs><style>.cls-1{fill:#1d8dd1;}</style></defs><g id="Calque_1-2"><path class="cls-1" d="M9.32,130.07c.15-4.63-.19-9.31-.02-13.94.63-16.57,5.27-31.54,15.47-44.7,7.23-9.34,16.44-16.02,26.87-21.43-1.21-3.1-2.34-6.63-2.59-9.98-.52-7.09-.66-20.15,0-27.14.59-6.28,7.48-5.93,12.26-5.39.23-5.23,6.1-5.75,10.25-5.57,1.08.05,3.12.7,3.71.61.45-.07,1.44-1.55,2.68-1.98,2.1-.73,8.48-.75,10.56.01,1.04.38,1.84,1.58,2.73,1.75,1.31.24,4.4-.5,6.31-.39,3.54.22,7.11,1.34,7.61,5.39.71,5.78-.54,12.94-.02,18.87,8.03,5.41,6.32,14.91,3.88,22.92,22.8,9.72,39.48,30.3,43.56,54.9,1.42,8.59,1.21,17.36,1.23,26.07h7.62c.12,0,1.5,1.42,1.6,1.75.57,1.9-.68,3.64-2.7,3.47H2.44c-3.86-.46-2.37-5.22-.74-5.22h7.62ZM86.95,5.65c-2.43-.47-5.03-.66-7.43,0v13.18l7.43,2.04V5.65ZM73.95,7.51c-2.57-.57-4.86-.35-7.43,0v20.98c0,1.36,2.27,2.96,3.58,3.04,1.06.06,3.85-1.26,3.85-2.29V7.51ZM99.96,23.85v-15.78c-1.01-1.28-6.96-1.17-7.64-.21v14.15s7.64,1.84,7.64,1.84ZM54.26,13.27v14.48c0,.23,1.14,1.96,1.49,2.22,1.25.92,3.41.82,4.46-.35.24-.27,1.1-2.04,1.1-2.24v-14.11c-1.84-1.21-4.31-.83-6.43-.49l-.63.49ZM60.58,130.07h43.46l-7.06-66.48c-1.9,1.55-8.57,4.82-8.56.18,0-2.47,3.46-3.12,5.33-4.34,5.42-3.53,9.63-9.22,11.22-15.52,1.36-5.39,1.87-11.19-4.02-13.81s-14.76-3.33-21.23-5.51c-.58.29,0,.66.16.95,1.83,3.14,7.01,5.67,10.43,6.66,2.66.77,9.59.57,7.6,5.02-.75,1.67-5.78,1.54-7.81,2.22-3.87,1.3-7.07,4.7-8.78,8.3-.9,1.88-1.34,6.22-4.66,4.8-2.76-1.18-1.16-4.68-.28-6.77,1.82-4.31,5.07-7.3,8.72-10.03l-6.84-3.75c-3.07,5.52-10.07,6.33-14.57,1.95-3.11,1.81-5.83,2.34-9.42,1.42-.51,9.97,4.02,18.84,12.29,24.29,1.78,1.17,6.65,2.44,4.07,5.61-2,2.45-5.61-.95-5.95-.57l-4.09,65.37ZM148.25,130.07c-.17-8.45.55-16.97-.85-25.33-3.8-22.6-19.56-42.45-40.9-50.76l-3.41,5.16c17.03,6.75,30.52,20.67,36.06,38.24,3.42,10.83,2.84,21.47,2.78,32.69h6.31ZM21.2,130.07c.11-9.69-.67-19.18,1.59-28.68,3.98-16.68,15.12-30.5,29.98-38.74.81-.45,4.88-2.16,5.05-2.38.75-1.04-2.8-3.8-3.19-5.05l-.54-.17c-20,8.73-34.62,27.85-38.35,49.33-1.47,8.49-.66,17.11-.86,25.7h6.31ZM136.73,130.07c0-9.8.58-19.13-1.96-28.68-4.42-16.59-16.62-30.38-32.58-36.69l.55,7.06c14.8,7.35,25.2,21.59,27.26,38.11.83,6.68.23,13.48.42,20.2h6.31ZM26.4,130.07h6.31c.04-9.64-.67-18.87,2.04-28.23,3.66-12.6,12.68-23.13,24.14-29.34l.37-7.06c-17.26,7.42-30.05,24.21-32.45,42.95-.91,7.16-.2,14.47-.42,21.67ZM125.22,130.07c-.16-6.45.36-13.04-.42-19.45-1.61-13.2-9.55-25.63-21.12-32.17l.75,7.88c6.47,5.01,11.32,12.18,13.33,20.19.31,1.24,1.14,4.49,1.14,5.54v18.01h6.31ZM37.92,130.07h6.31v-18.76c0-5.03,5-14.95,8.18-18.93,1.82-2.28,5.57-4.76,5.89-7.48.23-1.91-.26-3.86.41-5.71-.6-.54-5.02,3.09-5.75,3.72-6.93,5.96-12.55,15.39-14.21,24.42-1.37,7.45-.67,15.19-.84,22.74ZM55.38,130.07l2.23-35.28c-3.33,3.34-5.7,8.03-6.95,12.55-.35,1.25-1.22,4.37-1.22,5.47v17.27h5.94ZM113.7,130.07v-16.9c0-1.21-.93-4.75-1.3-6.13-1.23-4.52-3.58-8.97-6.87-12.26l3.71,35.29h4.46Z"/></g></svg>