<?xml version="1.0" encoding="UTF-8"?><svg id="Calque_2" xmlns="http://www.w3.org/2000/svg" viewBox="0 0 142.82 146.34"><defs><style>.cls-1{fill:#1d8dd1;}</style></defs><g id="Calque_1-2"><path class="cls-1" d="M134.46,102.75c-2.23,2.16-4.6,3.95-7.46,5.25,5.32,14.72-5.72,31.39-21.4,31.96-1.55.06-4.59-.65-5.39-.44-.84.22-4.04,3.23-5.52,4-5.19,2.69-10.62,3.44-16.31,2.18-2.16-.48-5.55-2.37-7.2-2.3-1.42.06-4.38,1.73-6.32,2.2-5.2,1.25-9.76.94-14.73-1.07-2.35-.95-6.44-4.73-7.5-5.01-.77-.2-4.52.48-6.3.36-15.65-1.11-25.19-16.81-20.83-31.5-.21-.78-5.69-3.99-6.92-5.09-10.06-8.95-11.42-25.38-3.11-35.91C-6,51.74,1.4,30.05,20.05,25,25.34,1.87,52.64-7.72,71.24,7.19c2.55-1.01,4.52-3.06,7.05-4.24,15.09-7.06,33.69-1.06,41.19,13.88.91,1.82,2.42,7.36,3.32,8.15,1.02.9,5.68,2.14,7.63,3.34,13.31,8.25,15.98,26.59,6.99,39.06,8.08,11.4,7.12,25.61-2.95,35.37ZM70.02,37.6c-.37-.21-1.05-2.03-1.12-2.61-.85-6.85.69-15.4.01-22.45-5.65-7.46-17.8-9.18-26.41-6.48-7.51,2.35-16.18,11.15-17.35,19.05s7.3,14.58,14.75,12.76c2.93-.71,7.56-5.69,9.83-3.66,3.49,3.13-6.16,7.78-8.61,8.36-6.65,1.57-13.42-1.34-17.49-6.69-1.01-1.32-2.74-5.61-3.79-5.64s-3.94,1.47-4.93,2.07c-8.79,5.29-12.25,16.65-8.91,26.19,1.14,3.25,3.91,5.77,5.09,8.84-.07,1.37-3.1,4.54-3.91,6.12-5.71,11.05-1.04,24.85,10.23,30,3.65-2.92,5.73-7.24,10.12-9.66,2.78-1.54,10.73-4.14,13.49-2.48,1.65.99,1.27,3.83-1.28,4.2-6.88,1-9.12.78-14.2,6.27-13.22,14.27-4.05,34.3,15.17,33.21.52-.14,1.45-6.94,1.83-8.23.95-3.24,4.82-11.64,7.94-5.53-1.81,3.25-5.95,11.65-4,15s9.7,5.32,13.26,5.24c1.97-.05,8.84-1.34,9.22-3.26l-.11-46.78c-.16-.54-3.24-3.64-3.75-3.77-.85-.23-5.96.59-7.89.45-13.6-1.02-22.38-17.33-22.7-29.68-.08-3.08.57-4.26,3.77-4.29,11.86-.14,28.44,9.02,30.13,21.78.48,3.63-1.51,9.33,3.21,10.59,4.34-2.37,2.38-6.53,2.87-10.57,1.59-13.09,17.31-20.95,29.13-21.74,3.22-.22,4.75.26,4.77,3.74.1,12.43-9.27,28.94-22.75,30.16-2.01.18-6.97-.66-7.86-.42-.51.14-3.59,3.23-3.75,3.77l-.04,47.21c6.88,4.73,17.42,3.37,22.8-3.04-.06-3.78-.75-7.04-2.33-10.45-.74-1.61-2.7-2.72-1.84-4.64,2.65-5.84,7.25,4.72,7.89,7.06.36,1.32.83,7.22,1.67,7.41,16.03,1.46,26.75-14.82,18.33-28.91-2.94-4.93-7.79-9.21-13.54-10.4-1.92-.39-5.73.68-6.03-1.97-.6-5.28,10.37-1.89,13.07-.57,4.14,2.01,7.97,6.76,10.59,10.45,12.19-4.54,17.01-19.93,10.49-31.03-.99-1.68-3.59-3.69-3.32-5.62.16-1.18,3.12-4.54,3.91-6.12,4.63-9.24,2.02-21.69-6.63-27.6-.99-.68-4.65-2.8-5.63-2.9-1.92-.21-2.31,2.77-3.2,4.08-5.4,7.9-13.93,11.04-22.69,6.41-1.91-1.01-5.76-3.22-5.08-5.71l.93-1.11c2.48-1.23,6.83,3.37,9.94,4.02,4.65.98,9.18-1.41,11.99-5.03,2.97-3.83,2.87-5.47,1.52-9.97-5.41-18.04-29.02-24.28-42.64-11.2-1.28,7.11.83,16.29-.29,23.15-.29,1.8-2.07,3.69-3.86,2.66ZM63.93,78.6c-.76-10-10.58-17.17-19.83-18.81-.81-.14-3.99-.77-4.37-.16.26,11.32,8.15,24.24,20.72,23.96-.75-3.25-7.98-5.83-5.52-9.64,1.14-1.77,3.01-.22,4.12.68.81.65,3.94,4.86,4.89,3.97ZM82.39,83.59c10.03.22,16.66-7.81,19.47-16.68.4-1.26,1.98-6.83.98-7.53-10.98.65-23.44,7.52-23.94,19.73,2.26-.76,6.36-7.87,8.85-5.36,3.23,3.26-6.58,8.78-5.36,9.85Z"/></g></svg>