<?xml version="1.0" encoding="UTF-8"?><svg id="Calque_2" xmlns="http://www.w3.org/2000/svg" viewBox="0 0 212.69 160.62"><defs><style>.cls-1{fill:#1d8dd1;}</style></defs><g id="Calque_1-2"><path class="cls-1" d="M186.29,80.51c5.76,2.32,9.56,3.85,15.12-.95,1.55-1.34,4.91-5.66,7.63-10.31,3.37-5.77,4.02-9.01,3.5-10.21-2.61-1.91-5.4-.38-9.32,2.17-1.86,1.21-3.63,2.36-5.39,2.81-2.56.65-4.94-2.45-7.05-5.18-.72-.94-1.41-1.83-1.92-2.31-1.03-.97-2.21-1.79-3.45-2.65-1.49-1.03-3.02-2.1-4.32-3.46l-.78-.83.25-.24c3.64-2.75,6-7.1,6-12,0-1.09-.12-2.2-.36-3.29h0c-1.52-6.82-7.7-11.76-14.69-11.76-8.3,0-15.06,6.75-15.06,15.05,0,1.71.29,3.39.85,5v.23s.14.14.14.14c.64,1.67,1.56,3.17,2.7,4.47l-.58.49c-1.54,1.3-3.22,2.23-4.85,3.12-1.46.81-2.85,1.57-4.15,2.59-1.26.98-3.65,3.79-5.57,6.05-2.38,2.81-3.34,3.9-3.95,4.23-1.99,1.07-4.96-.58-8.41-2.48-2.95-1.64-6.61-3.66-8.39-2.94-.2.08-.81.33-1.19,1.61-1.13,3.76,8.99,18.33,13.27,21.23,1.67,1.12,4.03,2.11,5.56,1.77.57-.12.98-.42,1.3-.94,1.18-1.98.12-2.92-2.99-4.91-2.22-1.43-4.74-3.05-4.9-5.8l-.11-1.95,1.76.84c4.59,2.2,4.98,1.59,6.43-.7.48-.76,1.08-1.71,1.92-2.68,8.48-9.81,15.4-14.25,22.42-14.4,6.23-.13,12.49,3.24,19.12,10.3,1.12,1.19,2.06,2.56,2.96,3.88,1.54,2.25,2.99,4.37,4.8,4.66,1.22.2,2.68-.38,4.48-1.75l.8-.61.71.71c.19.2.51.63.42,1.33-.23,1.81-3.64,5.03-4.26,5.39-4.09,2.39-8.52-.71-12.43-3.46-2.36-1.65-4.79-3.35-6.1-2.95-.52.16-.96.73-1.33,1.71-.72,1.95-4.31,22.42-4.21,24.06.36,2.74,3.53,8.36,6.32,13.32,2,3.55,3.89,6.9,4.83,9.27,1.91,4.84,3.04,10.07,4.13,15.13,1.33,6.19,2.71,12.58,5.52,18.08l.12.24v.26c.02.55-.24,1.86-2.84,2.35-2.3.42-5.09-.02-5.81-1.99-1.48-4.25-2.44-8.89-3.37-13.38-.84-4.06-1.71-8.26-2.94-12.01-2.04-6.15-4.13-9.71-6.24-10.58-.31-.13-.62-.2-.93-.2-.39,0-.8.11-1.22.32-.45.23-.72.52-.85.94-.58,1.77,1.21,5.25,2.51,7.79.7,1.35,1.29,2.51,1.6,3.45.65,1.98,1.52,5.97,2.53,10.59,1.58,7.27,3.97,18.24,5.43,19.67.49.49,1.37.95,2.09,1.11,3.56.79,16.97,1.49,20.81-1.61.76-.61.85-1.18.84-1.55,0-1.52-2.15-3.42-4.04-5.11-1.8-1.59-3.5-3.1-4.25-4.79-1.84-4.11-2.93-9.86-3.98-15.43-.88-4.68-1.8-9.52-3.14-13.29-.97-2.73-3.02-6.37-5-9.9-2.72-4.84-5.29-9.42-5.89-12.73-.49-2.68.22-5.91.89-9.04.51-2.35,1-4.57.97-6.42l-.02-1.64,1.55.54c1.42.49,2.73,1.02,4,1.53ZM171.51,28.59c4.83,0,8.76,3.93,8.76,8.76s-3.93,8.76-8.76,8.76-8.76-3.93-8.76-8.76,3.93-8.76,8.76-8.76Z"/><path class="cls-1" d="M66.81,28.19c-1.41,2.31-2.75,4.49-2.22,6.32.16.55.53.95,1.11,1.2.83.37,1.97.33,2.83-.1,1.6-.82,6.76-11.26,10.18-18.18,2.97-6.01,5.55-11.22,7.04-13.25.26-.62.04-1.65-.55-2.61-.64-1.03-1.46-1.57-1.95-1.57-.76.16-3.08,2.01-5.91,4.47-2.84,2.46-6.18,5.53-9.01,8.12-6.1,5.59-11.87,10.88-14.26,12.09l-.16.06c-.24.08-.47.14-.7.18-.49-.33-.99-.64-1.51-.91-2.11-1.12-4.51-1.71-6.94-1.71-8.3,0-15.06,6.75-15.06,15.05v.19c.05,3.81,1.55,7.28,3.95,9.91-.01.25-.05.5-.13.76l-.1.33-.27.22c-11.2,9.17-17.88,27.66-20.4,41.89-1.05,5.97-.86,12.07-.67,17.97.18,5.52.35,10.73-.43,15.82-.73,4.82-3.44,10.91-6.06,16.79-2.08,4.7-4.24,9.55-5.26,13.5-.45,1.74-.43,3.22.04,3.95.14.22.4.52,1.05.63,3.59.61,9.64.37,14.99.17,2.48-.1,4.82-.19,6.74-.19.45,0,.74-.09.87-.27.66-.94-.53-4.33-1.25-6.36-.83-2.35-1.33-3.85-1.14-4.93.61-2.48,2.59-6.22,4.68-10.19,2.22-4.21,4.73-8.98,4.84-10.99.07-1.45-.97-2.51-2.03-2.92-.42-.16-1.82-.57-2.92.58-.86,3.55-3.32,8.1-5.7,12.51-2.46,4.57-5.01,9.29-5.43,12.31-.1.71.07.91.52,1.46.27.33.62.75.89,1.34l.52,1.13-1.16.43c-2.93,1.08-5.21,1.08-8.11,0l-1.09-.41,9.89-25.81c-.43-20.76.52-50.24,13.41-67.68,3.77-5.08,6.8-7.36,9.84-7.36h.07c3.97.05,7.05,3.97,10.95,9.5.98,1.39,2.59,4.41,4.15,7.34,1.14,2.13,2.56,4.79,2.92,5.21.63.6,2.57.84,3.78.62,1.37-.93,6-10.51,6.1-12.23,0-.09-.09-.51-.15-.81-.34-1.59-.79-3.76.39-4.96.41-.41,1.18-.85,2.48-.59.42.09,1.01.34,1.45,1.06,1.8,2.9-.68,12.3-.71,12.4-.65,2.42-4.32,11.73-8.6,14.16-1.05.59-2.07.75-3.05.47-2.6-.73-5.2-5.05-8.21-10.05-2-3.33-5.03-8.37-6.42-8.5-.69-.07-1.21.08-1.6.45-.57.54-.87,1.6-.82,2.84.09,2.2,8.17,14.83,10.7,17.57,3.23,3.49,6.52,4.64,9.8,3.43.21-.08.42-.17.63-.27.05-.02.1-.04.16-.07.18-.09.37-.19.56-.3.07-.03.14-.07.21-.12.19-.11.38-.22.56-.35.2-.13.4-.27.59-.42.25-.18.49-.38.74-.6.12-.1.24-.2.37-.33.17-.16.35-.32.52-.49.25-.25.49-.51.74-.77,2.02-2.18,3.97-5.18,5.71-8.86,1.29-2.71,2.4-5.67,3.2-8.49.16-.52.3-1.02.42-1.52.26-1,.47-1.96.64-2.88.24-1.31.39-2.53.43-3.61.26-7.35-3.97-10.2-8.03-10.42-4.23-.22-8.84,2.48-9.18,7.38,0,.17.13.8.23,1.26.42,2.02.82,3.93-.3,4.8-.31.24-.99.57-2.02.06-.7-.35-8.66-11.19-8.4-12.9h0c5.3-2.34,9.02-7.64,9.02-13.79,0-1.24-.15-2.46-.44-3.64h0c-.15-.59-.32-1.14-.52-1.65l-.07-.19c-.31-.79-.69-1.54-1.12-2.25,1.16-2.3,8.04-7.78,9.82-8.31.85-.25,1.35.09,1.57.32l.39.41-.08.55c-.28,1.9-1.43,3.78-2.55,5.6ZM44.76,27.59c5.38,0,9.76,4.38,9.76,9.76s-4.38,9.76-9.76,9.76-9.76-4.38-9.76-9.76,4.38-9.76,9.76-9.76Z"/><path class="cls-1" d="M162.15,105.02c-1.17.97-2.46,8.77-3.15,12.98-.57,3.43-1.06,6.4-1.58,7.91-.68,1.97-2.53,5.26-4.67,9.07-2.83,5.04-7.11,12.66-6.73,14.73.04.18.38.61.58.86.2.26.39.51.54.74l.53.85-2.4,2-6.94.15.21-1.36c.85-5.37,2.93-10.47,4.94-15.41,1.72-4.21,3.5-8.57,4.46-13.02.82-3.79,1.24-8.04,1.64-12.16.36-3.61.72-7.35,1.36-10.78.78-4.17,2.2-8.96,3.57-13.59,1.9-6.4,3.86-13.01,4.25-18.27.18-2.44-.69-3.74-1.63-3.94-.1-.02-.2-.03-.31-.03-1.13,0-2.65,1.19-3.64,3.97-3.82,10.72-5.48,22.17-7.09,33.24-1.1,7.6-2.24,15.45-4.07,22.85-.76,3.11-2.7,7.78-4.75,12.72-3.13,7.57-6.68,16.14-6.27,19.76.09.78,2.01,1.67,3.51,1.86,4.05.5,15.68.48,20.08-.02,2.51-.29,4.07-.93,4.4-1.81.6-1.63-2.36-4.84-4.13-6.76-1.65-1.79-2.48-2.68-2.39-3.66l.08-.32c1.26-3.18,3.08-6.45,4.84-9.6,2.04-3.65,4.15-7.43,5.34-11.01,1.01-3.04,1.55-6.42,2.07-9.69.53-3.34,1.08-6.8,2.15-10.05l-.6-1.9c-.87-.83-2.87-.87-4.2-.31Z"/><path class="cls-1" d="M66.5,151.82c-1.58-1.39-3.22-2.82-3.99-4.51-1.81-3.99-2.87-9.62-3.89-15.07-.9-4.81-1.83-9.77-3.27-13.6-1.07-2.85-3.55-6.59-5.96-10.2-2.57-3.87-5-7.52-5.63-10.02-.36-1.43-.28-3.94-.17-7.12.17-4.75.42-11.92-1.53-13.56-.21-.18-.53-.37-1.16-.26-1.43.66-2.15,1.21-2.39,2.42-.48,2.42-.46,18.03.02,20.62.38,2.04,3.24,6.31,5.77,10.08,2.34,3.48,4.54,6.78,5.53,9.18,2.1,5.12,3.25,10.8,4.37,16.3,1.14,5.63,2.32,11.45,4.52,16.6l.79,1.85-8.78-1.13-.25-.64c-1.54-3.93-2.45-8.78-3.34-13.48-.96-5.1-1.96-10.38-3.74-14.26-.93-2.05-11.71-15.84-13.1-16.77-.78-.34-2.49.1-2.92.82-1.56,2.59,3.14,8.28,6.57,12.43,1.88,2.28,3.51,4.24,4.25,5.75,2.2,4.49,3.32,10.32,4.4,15.96,1.06,5.55,2.16,11.28,4.27,15.73,1.95,1.63,19.13,1.98,21.9.4.8-.45,1.28-.93,1.49-1.5.61-2.01-1.09-3.69-3.76-6.02Z"/><path class="cls-1" d="M42.69,75.45c.13.06.26.13.38.2h0c-.12-.08-.25-.15-.38-.2Z"/><path class="cls-1" d="M85.2,28.65c.42.25.95.29,1.62.13,3.71-.94,9.08-7.41,10.88-10.36-.25-1.39-.76-2.18-1.54-2.33-2.95-.58-9.29,5.58-10.75,8.09-.71,1.22-.66,4.01-.21,4.47Z"/><path class="cls-1" d="M88.84,47.44c-.82-.37-1.57-.56-2.21-.56s-1.19.2-1.55.58c-.74.83-.61,2.42.34,4.07,1.05,1.82,6.46,7.14,9.89,7.99.36.09.83.16,1.2.04.3-.61.95-2.15,1.12-2.68-.5-1.54-7.34-8.73-8.79-9.44Z"/><path class="cls-1" d="M95.55,34.68c-1.94,0-4.04.28-5.56.99-1.91.9-1.8,2-1.77,2.36.07.76.39,1.33,1.01,1.8,2.23,1.67,7.26,1.26,9.88.75,1.3-.25,1.8-1.29,1.98-1.89.34-1.13.1-2.39-.58-3.08-.53-.52-2.63-.93-4.96-.93Z"/></g></svg>