<?xml version="1.0" encoding="UTF-8"?><svg id="Calque_2" xmlns="http://www.w3.org/2000/svg" viewBox="0 0 180.42 124.35"><defs><style>.cls-1{fill:#1d8dd1;}</style></defs><g id="Calque_1-2"><path class="cls-1" d="M23.06,25.13c26.83-3.03,41,29.72,20.44,47.02C27.15,85.9,1.68,74.89.07,53.76c-1.04-13.74,9.08-27.06,22.99-28.63ZM27.06,29.72l20.93,25.8c.91-.69.61-1.91.57-2.91l-17.95-22.33c-.94-.94-2.35-.48-3.55-.56ZM46.23,61.78c.21-1.2,1.35-2.16.43-3.35l-21.95-26.94c-1.13-1.73-2.5-1.6-4.29-.99l25.81,31.28ZM41.94,66.86c.71.49,1.98-1.77,2.29-2.22L17.09,31.78c-1.03.47-2.7.88-1.97,2.23l26.81,32.85ZM47.79,46.53c-.99-6.4-6.05-12.53-12.12-14.86l12.12,14.86ZM37.29,70.33c.72.41,3.65-1.27,2.24-2.43L12.39,34.8l-1.97,1.94.43,1.15,26.44,32.43ZM31.83,72.66c.71.27,3.27-.32,3.05-1.29l-26.4-31.87c-.7.86-1.8,1.91-1.18,3.11l24.53,30.05ZM29.02,73.51L5.55,45.36l-.18,3.89,19.13,23.5c1.08,1.32,3,.61,4.52.76ZM20.8,72.72L4.76,53.57c.05,4.93,3.26,8.36,6.27,11.91s4.98,6.48,9.77,7.24Z"/><path class="cls-1" d="M75.18,123.95H20.41c-2.63-11.73-6.78-23,.62-33.98,11.85-17.6,37.56-14.12,45.45,4.95l8.7,29.04ZM66.57,111.05l-2.17-6.63-17.95-20.77-4.53-.75,24.64,28.15ZM68.92,119.26c.46-.42-2.31-3.56-2.75-4.09-7.88-9.56-17.16-20.57-25.61-29.54-.4-.42-2.03-2.18-2.34-2.21l-2.55.66,1.18,2.14,28.33,32.69,3.74.36ZM61.88,119.26l-28.54-33.07c-.67-1.16-3.96.49-2.77,1.6l27.67,31.39,3.64.08ZM62.27,97.36c-1.27-5.11-5.66-9.29-10.16-11.73l10.16,11.73ZM54.06,119.26l-26.07-30.08c-.81-.14-2.3,1.82-1.51,2.7l22.87,26.42c1.12,1.55,3.06.83,4.71.96ZM46.62,119.26l-22.69-25.41-1,2.74,19.46,22.59,4.22.08ZM38.8,119.26l-17.21-19.15-.21,3.51c4.12,4.21,7.71,9.51,11.74,13.7,2.03,2.11,2.54,2.22,5.68,1.95ZM30.97,119.26l-8.99-10.56c.13,1.48.38,3.82.89,5.16.22.57,3.88,5.05,4.18,5.2,1.03.51,2.76.05,3.91.19Z"/><path class="cls-1" d="M180.42,124.35h-59.27c-.94-1.55-1.41-3.67-1.96-5.48-2.46-8.13-8.37-26.08-8.01-33.82,1.35-29.06,40.05-37.81,54.06-12.59,6.14,16.92,9.99,34.65,15.19,51.89ZM174.16,119.65l-11.15-40.27c-11.2-29.88-53.3-18.43-45.94,14.63,1.9,8.54,5.31,17.01,7.01,25.64h50.08Z"/><path class="cls-1" d="M115.4.11c20.48-1.78,36.14,17.88,30.09,37.51-7.27,23.61-39.78,27.36-52.24,5.9C82.68,25.31,94.38,1.94,115.4.11ZM115.4,4.8c-30.37,3.1-27.06,49.51,3.4,48.37,32.64-1.23,29.86-51.76-3.4-48.37Z"/><path class="cls-1" d="M83.39,37.93l1.19,4.3-20.31,5.06c-.15-1.01-1.4-3.39-.43-4.08l19.56-5.27Z"/><path class="cls-1" d="M86.41,46.97c.86-.14,1.96,2.44,2.85,2.88l-11.54,9.95-2.53-2.91,11.22-9.92Z"/><polygon class="cls-1" points="82.23 28.15 82.23 32.06 67.94 31.67 67.07 31.1 67.36 27.37 82.23 28.15"/></g></svg>