<?xml version="1.0" encoding="UTF-8"?><svg id="Calque_2" xmlns="http://www.w3.org/2000/svg" viewBox="0 0 642.42 289.7"><defs><style>.cls-1{fill:#fff;}</style></defs><g id="Calque_1-2"><path class="cls-1" d="M135.51,221.86c.19.19.38.39.57.58,1.93,1.66,3.73,3.46,5.6,5.18,2.35,2.16,4.94,4.03,7.28,6.19l-.02-.02c3.44,1.99,6.64,4.36,10.22,6.13,2.45,1.21,4.91,2.38,7.38,3.53.21.14.4.28.61.43,1.01.74,2.25.98,3.36,1.52,3.5,1.06,7,2.14,10.59,2.89.77.21,1.58.11,2.36.37,1.7.56,2.03.3,2.04-1.47.01-10.46,0-20.92.02-31.38,0-1.29-.34-2.63.39-3.86,8.6-.13,17.21-.01,25.81-.07,1.07,0,1.43.51,1.48,1.44.03.46.02.92.02,1.38,0,19.96,0,39.93,0,59.89,0,.95.24,1.98-.64,2.74-.69.39-1.44.3-2.18.3-4.92.01-9.85.26-14.74-.08-3.73-.26-7.5-.37-11.19-1.09-6.29-.75-12.44-2.17-18.5-3.99-3.74-1.03-7.33-2.47-10.91-3.93-.27-.11-.54-.19-.82-.23-4.7-2.02-9.3-4.24-13.65-6.94-2.12-1.32-4.26-2.6-6.23-4.14-3.85-2.9-7.47-6.08-11.3-9.01-2.99-2.37-5.46-5.26-8.04-8.05-.84-.91-1.84-1.7-2.47-2.8-.61-1.53-1.88-2.57-2.83-3.85-1.13-1.51-2.28-3-3.39-4.52-.1-.12-.19-.25-.27-.39-.33-.81-.85-1.49-1.51-2.06-4.67-6.82-8.25-14.21-11.32-21.86-.06-.16-.08-.33-.1-.5-.65-2.55-1.72-4.97-2.41-7.51-.07-.16-.15-.32-.22-.47-.41-1.6-.72-3.24-1.33-4.79-.08-.19-.13-.38-.16-.58-.45-2.87-1.11-5.7-1.56-8.57-.74-4.75-1.35-9.49-1.25-14.31.02-1.26-.01-2.52,0-3.78.03-2.2.31-2.5,2.48-2.5,5.9-.02,11.8,0,17.69,0,1.49,0,2.98-.03,4.47.01,1.74.05,2.18.4,2.12,2.16-.13,3.79.87,7.48.84,11.25.4.72.44,1.53.51,2.32.35,3.86,1.39,7.57,2.42,11.28,1.92,6.91,4.98,13.34,8.53,19.54,1.47,1.59,2.39,3.58,3.79,5.22.1.12.2.25.28.38.53.97,1.2,1.83,2.02,2.58.98,1.45,2.23,2.69,3.32,4.04.36.44.71.87.85,1.43Z"/><path class="cls-1" d="M280.05,196.52c-.18.25-.36.49-.55.74-1.26,1.93-2.99,3.45-4.56,5.1-5.55,5.78-11.51,11.12-17.72,16.18-.36.3-.77.48-1.15.74h0c-2.61,2.4-5.49,4.47-8.32,6.6-1.07.81-1.75.65-2.55-.42-4.74-6.38-9.38-12.83-14.07-19.24-1.11-1.52-1.02-2.21.51-3.25,2.17-1.48,4.13-3.26,6.37-4.65,1-.35,1.72-1.12,2.52-1.75,5.19-4.13,9.96-8.71,14.62-13.43.24-.24.45-.52.62-.82,1.22-1.7,2.85-3.01,4.2-4.58,1.32-1.63,2.63-3.25,4.14-4.7.45-.43.87-.91,1.6-.78,2.81,1.78,5.14,4.15,7.67,6.27,3.83,3.22,7.62,6.49,11.43,9.74,1.39,1.19,1.44,1.5.25,2.9-1.59,1.86-3.16,3.74-5,5.35Z"/><path class="cls-1" d="M156.55,146.28c-.73-.14-1.08.62-1.7.73-.56.66-1.37.92-2.09,1.33h0c-1.48,1.4-3.21,2.52-4.51,4.12h.01c-.96,1.36-1.82,2.78-2.8,4.13l.02-.02c-.18.51-.2,1.09-.76,1.4-.31.24-.25.59-.27.92-.2.63-.07,1.36-.62,1.87-.08.08-.1.17-.05.27-.25.58-.09,1.3-.6,1.8-.03.19-.07.39-.1.58-.16.62-.17,1.29-.6,1.82-.02.11-.04.22-.06.33-.33.66-.12,1.49-.65,2.09-.34.13-.17.81-.75.69-.54-.51-.4-1.24-.61-1.85-.03-.19-.07-.38-.1-.57-.41-.52-.42-1.19-.6-1.79-.04-.2-.07-.41-.11-.61-.49-.49-.32-1.2-.6-1.76.04-.11.02-.21-.05-.3-.54-.51-.41-1.24-.61-1.86.05-.09.03-.15-.06-.21-.45-.41-.47-.99-.63-1.51-.72-1.33-1.44-2.67-2.16-4-.51-.5-.88-1.12-1.33-1.66-.79-.83-1.57-1.66-2.36-2.49-.36-.22-.8-.33-1.09-.68-1.03-.69-2.05-1.38-3.08-2.07-.46-.22-.97-.33-1.39-.64l-.13-.08h-.15c-.48-.2-1.05-.21-1.45-.59-.19-.03-.38-.07-.57-.1-.51-.16-1.06-.2-1.5-.56-.21-.04-.42-.07-.63-.11-.59-.19-1.25-.2-1.77-.61l-.56-.1c-.62-.2-1.35-.07-1.86-.61l-.13-.07-.15.02c-.57-.26-1.31-.08-1.78-.64l-.05-.02c-.12-.65.55-.41.77-.67.22-.04.44-.07.65-.11.44-.35.99-.39,1.49-.56.19-.03.38-.07.57-.1.5-.51,1.22-.37,1.82-.6l.6-.1c.52-.4,1.18-.39,1.76-.6.21-.04.43-.07.64-.11.4-.36.95-.35,1.41-.58h-.01c2.53-.99,4.73-2.55,6.93-4.11h0c.26-.65.83-1.01,1.34-1.43.22-.23.44-.46.67-.69.41-.62.97-1.12,1.42-1.71v.02c.19-.36.31-.77.62-1.07.48-.9.96-1.8,1.44-2.7.22-.47.21-1.04.6-1.44.04-.19.07-.37.11-.56.15-.52.2-1.07.56-1.51.04-.21.07-.43.11-.64.21-.58.2-1.24.6-1.76.03-.2.07-.4.1-.59.22-.6.08-1.32.6-1.83.03-.18.06-.36.1-.55.16-.53.17-1.13.66-1.51.48-.03.61.33.74.68.49.48.32,1.19.6,1.74h0c.53.63.45,1.46.66,2.19-.05.08-.04.15.05.2.37.65.45,1.39.66,2.09h0c1.44,5.03,4.63,8.82,8.55,12.11.35.73.86,1.24,1.72,1.28,1.7.93,3.48,1.67,5.26,2.42.06.08.14.09.23.05.51.17,1.06.2,1.49.56.22.03.44.07.66.1.57.23,1.23.21,1.74.6.22.03.43.06.65.09.57.27,1.29.1,1.77.62.45.22.9.44,1.34.65-.5.75-1.41.38-2.04.77-.11.02-.23.04-.34.06-.52.42-1.19.42-1.79.61-.2.04-.41.07-.61.11-.48.49-1.19.31-1.74.61l-.17-.02-.16.07c-.49.52-1.22.37-1.8.61l-.14-.02-.12.07c-.45.56-1.19.35-1.74.66Z"/><path class="cls-1" d="M198.08,109.45c-.04,1.99.1,3.95.71,5.86.11,3.7.22,7.41.31,11.11.01.54.22,1.15-.31,1.6-.3.23-.65.17-.99.17-8.06,0-16.12,0-24.18,0-.34,0-.69.05-1-.15h0c-.44-.55-.33-1.2-.33-1.82.05-5.27-.36-10.5-1.41-15.66-.17-.85.03-1.72-.28-2.54-.7-2.63-1.4-5.26-2.1-7.89-1.18-2.44-1.98-5.03-2.91-7.56-.14-.38-.28-.74-.56-1.03-.39-.83-.63-1.75-1.27-2.45-2.14-5.2-5.21-9.86-8.51-14.37-.8-1.1-1.7-2.14-2.56-3.2-3.5-4.53-7.44-8.63-12.07-12.03-.12-.12-.23-.23-.35-.35-.43-1.33-1.72-1.75-2.68-2.49-5.97-4.65-12.59-8.14-19.57-11-4.24-1.73-8.59-3.07-13.03-4.16-1.27-.31-2.57-.44-3.84-.83-1.59-.49-1.89.54-1.88,1.93.03,11.02-.01,22.03.06,33.05.01,1.63-.37,2.14-2.06,2.12-7.46-.09-14.92-.07-22.38-.01-1.5.01-2.1-.29-2.1-1.97.06-20.25.06-40.51,0-60.76,0-1.66.56-2.03,2.09-2,4.3.08,8.61-.08,12.91.06,5.02.17,10.07.25,15.02,1.11,9.09,1.57,17.99,3.89,26.53,7.55,3.23,1.38,6.32,3.03,9.56,4.37,1.19.1,2.02,1.03,3.09,1.39,5.37,2.99,10.36,6.53,15.19,10.31,2.71,2.51,5.45,4.99,8.11,7.54,3.92,3.75,7.45,7.85,10.76,12.15,4.05,5.22,7.53,10.8,10.48,16.72.65.89,1.04,1.93,1.61,2.87.23.46.46.91.69,1.37,1.81,4.35,3.59,8.71,4.99,13.22,1.5,4.82,2.68,9.72,3.62,14.68l.65,3.11Z"/><path class="cls-1" d="M203.58,192.4c-2.72.41-5.15,1.76-7.79,2.42-3.03.75-5.96,1.86-9.09,2.19-.36.04-.7.35-1.05.54-4.3.46-8.55,1.35-12.88,1.61-3.38.2-6.74.13-10.11.21-.99.02-1.09-.54-1.09-1.32.02-8.3.03-16.6.05-24.9,1.05-.36,2.15-.17,3.21-.15,2.06.05,4.08-.17,6.1-.51.44-.02.88-.05,1.33-.07,6.56-.81,12.98-2.26,19.31-4.11,2.82-.6,5.33-1.98,7.92-3.13,5.17-2.3,9.99-5.22,14.62-8.46.31-.21.53-.42.52-.81,4.07-3.25,8.05-6.59,11.61-10.4,6.62-7.08,12.02-14.96,15.96-23.82.23-.52.45-1.04.68-1.56.44-1.15.8-2.34,1.39-3.44,1.38-3.94,2.76-7.88,3.47-12.02,1.72-4.68,1.59-4.87-3.23-4.87-10.32,0-20.65-.03-30.97.03-1.54,0-1.95-.47-1.94-1.96.07-7.69.07-15.37,0-23.06-.01-1.55.49-1.92,1.98-1.91,20.42.04,40.84.05,61.26,0,1.51,0,1.96.38,1.93,1.91-.12,6.08.04,12.16-.18,18.23-.14,3.99-.64,7.99-1.33,11.94-.56,1.09-.4,2.32-.65,3.47-.02.22-.04.43-.06.65-.71,2.38-1.04,4.86-1.78,7.24-.57,1.83-1.09,3.69-1.61,5.54-1.21,4.52-3.09,8.78-5.07,13-5.5,11.7-12.92,22.08-21.94,31.32-2.59,2.66-5.48,5.03-8.24,7.52-.25.23-.57.38-.64.76-3.81,2.66-7.47,5.54-11.43,7.97-1.25.77-2.46,1.58-3.69,2.38-2.3.53-4.12,2.07-6.21,3.04-3.41,1.59-6.85,3.08-10.32,4.54Z"/><path class="cls-1" d="M82.75,129.08c-.35.22-.7.44-1.05.67-3.27,1.4-5.94,3.74-8.81,5.76-1.39.97-2.66,2.11-3.98,3.18-2.05,1.9-4.04,3.87-6.01,5.85-1.41,1.42-2.69,2.96-3.89,4.57-5,6.35-9.28,13.13-12.45,20.59-1.79,2.91-2.59,6.22-3.6,9.42-.91,2.88-1.5,5.87-2.17,8.82-.46,2-.09,2.39,2.04,2.39,10.95,0,21.91.03,32.86-.03,1.54,0,1.94.44,1.92,1.94-.08,8.2-.06,16.4-.07,24.6-.63.03-1.26.08-1.89.09-20.35,0-40.71-.01-61.06.04-1.63,0-2.16-.4-2.12-2.08.11-4.76-.12-9.52.08-14.27.25-5.7.85-11.37,1.84-17.02,1.28-7.24,3.4-14.22,5.93-21.09.72-1.95,1.91-3.73,2.16-5.85.69-1.38,1.38-2.75,2.08-4.13.43-.36.37-.96.69-1.37h0c.97-1.58,1.79-3.24,2.73-4.84,1.15-1.84,2.29-3.68,3.44-5.51,1.48-1.48,2.67-3.16,3.45-5.12.2-.15.4-.3.6-.46.88-.77,1.35-1.86,2.13-2.71h0c1.18-1.35,2.34-2.72,3.44-4.13,5.86-6.43,12.2-12.34,19.38-17.29.23-.16.42-.38.63-.57,1.75-.56,3.08-1.83,4.59-2.78,3.85-2.39,7.93-4.36,11.89-6.56,3.57-1.47,7.15-2.94,10.73-4.4,2.21-.59,4.41-1.23,6.52-2.13,5.41-1.63,10.97-2.56,16.53-3.43,4.79-.15,9.55-.92,14.36-.68,2.18.11,2.18.02,2.18,2.27,0,7.67-.03,15.34.03,23.01,0,1.29-.35,1.71-1.64,1.63-3.95-.26-7.87.27-11.79.66-1.27.24-2.62.04-3.83.64l-.16.03h-.16c-1.03.29-2.17.04-3.13.63-7.4,1.53-14.41,4.19-21.1,7.66-1.15.6-2.41,1.04-3.33,2.02Z"/><path class="cls-1" d="M34.2,67.09c1.16-.8,2.37-1.53,3.47-2.41.97-.78,1.54-.52,2.22.37,1.74,2.3,3.23,4.81,5.26,6.89,2.07,3.62,4.75,6.82,7.2,10.17,2.71,3.71,2.76,3.58-.87,6.25-10.3,7.57-19.61,16.23-27.94,25.93-.59.69-1.25,1.33-1.86,2.02q-1.61,1.82-3.48.22c-3.17-2.71-6.34-5.41-9.51-8.12-.81-.62-1.51-1.36-2.34-1.97-1.75-1.69-3.52-3.35-5.48-4.79-.91-.67-1.2-1.3-.46-2.23,9.03-10.93,19.24-20.67,30.29-29.53.27-.21.5-.46.75-.7.79-.86,1.84-1.4,2.74-2.1Z"/><path class="cls-1" d="M108.9,280.24c-2.06,2.41-4.13,4.81-6.19,7.22-.22.17-.46.32-.65.52q-2.04,2.24-4.37.23c-1.76-1.52-3.53-3.03-5.29-4.55-4.62-4.5-9.29-8.95-13.58-13.78-2.84-3.19-5.64-6.42-8.45-9.64-1.27-1.71-2.54-3.42-3.82-5.12-.68-1.06-1.33-2.14-2.18-3.07-.74-.81-.53-1.32.3-1.94,2.69-2.02,5.47-3.92,8.1-6.02h0c1.1-.88,2.39-1.49,3.42-2.46,2.7-2.01,5.41-4.02,8.09-6.04.85-.64,1.39-.38,1.97.42,3.96,5.54,8.28,10.8,12.84,15.85,5.18,5.73,10.7,11.11,16.67,16.02,1.61,2.09,1.55,2.05-.32,4.36-2.17,2.67-4.65,5.09-6.53,8Z"/><path class="cls-1" d="M190.16.68c1.24,1.65,2.85,2.89,4.54,4.04,7.1,6.3,13.71,13.08,19.87,20.3.44.51.79,1.13,1.45,1.41,2.85,3.58,5.7,7.16,8.55,10.73,1.15,2.21,1.13,2.19-1.17,3.87-5.86,4.27-11.7,8.58-17.56,12.85-1.93,1.41-1.94,1.39-3.29-.54-3.65-5.24-7.63-10.21-12.05-14.83-1.94-1.96-3.87-3.92-5.81-5.88-.21-1.14-1.33-1.47-2.02-2.17-2.74-2.77-5.42-5.61-8.67-7.81-2.34-2.21-2.37-2.23-.22-4.78,4.66-5.53,9.34-11.04,14.01-16.56.49-.42.9-.91,1.39-1.32.49,0,.6.53.97.68Z"/><path class="cls-1" d="M357.55,102.3c-3.01-.93-5.36-2.13-7.07-3.6l3.35-6.22c1.79,1.42,3.91,2.55,6.37,3.38s4.97,1.25,7.53,1.25c3.13,0,5.62-.54,7.47-1.62,1.85-1.08,2.77-2.55,2.77-4.42,0-1.06-.38-1.94-1.13-2.65-.75-.71-1.69-1.29-2.8-1.74-1.12-.45-2.67-.96-4.66-1.52-2.76-.81-5-1.59-6.7-2.35s-3.17-1.88-4.39-3.38-1.83-3.45-1.83-5.85c0-2.76.78-5.18,2.35-7.25,1.56-2.07,3.75-3.68,6.55-4.82,2.8-1.14,6.03-1.71,9.69-1.71,2.76,0,5.38.31,7.86.95,2.48.63,4.61,1.51,6.4,2.65l-3.11,6.28c-1.58-1.06-3.37-1.87-5.36-2.44-1.99-.57-4.06-.85-6.22-.85-3.17,0-5.68.58-7.53,1.74-1.85,1.16-2.77,2.69-2.77,4.6,0,1.1.39,2.01,1.16,2.74.77.73,1.71,1.31,2.8,1.74,1.1.43,2.7.97,4.81,1.62,2.68.77,4.88,1.52,6.58,2.25,1.71.73,3.16,1.81,4.36,3.23,1.2,1.42,1.8,3.27,1.8,5.55,0,2.8-.78,5.24-2.35,7.31-1.57,2.07-3.78,3.68-6.64,4.82-2.86,1.14-6.15,1.71-9.84,1.71-3.29,0-6.44-.47-9.45-1.4Z"/><path class="cls-1" d="M398.42,101.72c-2.38-1.2-4.22-2.88-5.52-5.03-1.3-2.15-1.95-4.65-1.95-7.5,0-3.62.82-6.87,2.47-9.75,1.65-2.89,3.94-5.15,6.89-6.8,2.95-1.65,6.27-2.47,9.96-2.47,3.17,0,5.95.59,8.35,1.77,2.4,1.18,4.25,2.84,5.55,5,1.3,2.15,1.95,4.65,1.95,7.5,0,3.62-.83,6.87-2.5,9.75-1.67,2.89-3.97,5.16-6.92,6.83-2.95,1.67-6.27,2.5-9.96,2.5-3.17,0-5.94-.6-8.32-1.8ZM412.99,95.44c1.69-1.04,3.02-2.48,3.99-4.33.97-1.85,1.46-3.95,1.46-6.31,0-2.56-.75-4.56-2.26-6-1.5-1.44-3.62-2.16-6.34-2.16-2.15,0-4.07.52-5.76,1.55-1.69,1.04-3.02,2.48-3.99,4.33-.98,1.85-1.46,3.95-1.46,6.31,0,2.56.75,4.56,2.25,6,1.5,1.44,3.62,2.16,6.34,2.16,2.15,0,4.07-.52,5.76-1.55Z"/><path class="cls-1" d="M438.98,57.87h7.62l-9.02,45.22h-7.62l9.02-45.22Z"/><path class="cls-1" d="M485.6,70.55l-6.52,32.55h-7.25l.73-3.6c-2.93,2.68-6.6,4.02-11.03,4.02-3.58,0-6.43-.97-8.56-2.9-2.13-1.93-3.2-4.64-3.2-8.14,0-1.3.14-2.6.43-3.9l3.6-18.04h7.62l-3.6,17.86c-.16.81-.24,1.65-.24,2.5,0,1.91.54,3.37,1.61,4.39,1.08,1.02,2.69,1.52,4.85,1.52,2.76,0,5.06-.78,6.89-2.35s3.05-3.91,3.66-7.04l3.41-16.88h7.62Z"/><path class="cls-1" d="M499.8,92.18c-.08.65-.12,1.12-.12,1.4,0,2.44,1.28,3.66,3.84,3.66,1.58,0,3.01-.43,4.27-1.28l1.34,5.61c-2.07,1.3-4.69,1.95-7.86,1.95-2.8,0-5.06-.77-6.76-2.32-1.71-1.54-2.56-3.68-2.56-6.4,0-.89.08-1.75.24-2.56l3.11-15.36h-5.3l1.22-6.09h5.3l1.46-7.44h7.62l-1.52,7.44h8.78l-1.22,6.09h-8.78l-3.05,15.3Z"/><path class="cls-1" d="M521.38,70.55h7.62l-6.46,32.55h-7.62l6.46-32.55ZM523.63,63.93c-.85-.83-1.28-1.84-1.28-3.02,0-1.38.48-2.54,1.43-3.47.95-.93,2.2-1.4,3.75-1.4,1.34,0,2.44.4,3.29,1.19s1.28,1.76,1.28,2.89c0,1.5-.48,2.72-1.43,3.66-.96.94-2.2,1.4-3.75,1.4-1.34,0-2.44-.42-3.29-1.25Z"/><path class="cls-1" d="M540.3,101.72c-2.38-1.2-4.22-2.88-5.52-5.03-1.3-2.15-1.95-4.65-1.95-7.5,0-3.62.82-6.87,2.47-9.75,1.65-2.89,3.94-5.15,6.89-6.8,2.95-1.65,6.27-2.47,9.96-2.47,3.17,0,5.95.59,8.35,1.77,2.4,1.18,4.25,2.84,5.55,5,1.3,2.15,1.95,4.65,1.95,7.5,0,3.62-.83,6.87-2.5,9.75-1.67,2.89-3.97,5.16-6.92,6.83-2.95,1.67-6.27,2.5-9.96,2.5-3.17,0-5.94-.6-8.32-1.8ZM554.87,95.44c1.69-1.04,3.02-2.48,3.99-4.33.97-1.85,1.46-3.95,1.46-6.31,0-2.56-.75-4.56-2.26-6-1.5-1.44-3.62-2.16-6.34-2.16-2.15,0-4.07.52-5.76,1.55-1.69,1.04-3.02,2.48-3.99,4.33-.98,1.85-1.46,3.95-1.46,6.31,0,2.56.75,4.56,2.25,6,1.5,1.44,3.62,2.16,6.34,2.16,2.15,0,4.07-.52,5.76-1.55Z"/><path class="cls-1" d="M604.72,73.04c2.13,1.91,3.2,4.61,3.2,8.11,0,.97-.14,2.28-.43,3.9l-3.6,18.04h-7.62l3.54-17.86c.16-.81.24-1.65.24-2.5,0-3.94-2.17-5.91-6.52-5.91-2.8,0-5.12.78-6.95,2.35-1.83,1.57-3.07,3.91-3.72,7.04l-3.41,16.88h-7.62l6.46-32.55h7.25l-.73,3.6c2.93-2.64,6.66-3.96,11.21-3.96,3.66,0,6.55.96,8.69,2.86Z"/><path class="cls-1" d="M616.79,102.51c-2.5-.67-4.44-1.51-5.82-2.53l3.17-5.85c1.34.97,3.03,1.75,5.06,2.32,2.03.57,4.12.85,6.28.85,2.44,0,4.28-.34,5.52-1.01,1.24-.67,1.86-1.63,1.86-2.89,0-.98-.52-1.69-1.55-2.13-1.04-.45-2.67-.91-4.91-1.4-2.32-.45-4.22-.92-5.7-1.43-1.48-.51-2.76-1.34-3.84-2.5-1.08-1.16-1.62-2.75-1.62-4.78,0-3.37,1.41-6.04,4.24-8.01s6.57-2.96,11.25-2.96c2.23,0,4.41.26,6.52.76,2.11.51,3.84,1.19,5.18,2.04l-2.8,5.85c-1.34-.85-2.85-1.48-4.54-1.89-1.69-.4-3.38-.61-5.09-.61-2.4,0-4.22.36-5.45,1.1-1.24.73-1.86,1.69-1.86,2.86,0,1.06.54,1.82,1.62,2.29,1.08.47,2.75.94,5.03,1.43,2.28.45,4.15.92,5.61,1.43,1.46.51,2.72,1.33,3.78,2.47,1.06,1.14,1.58,2.68,1.58,4.63,0,3.49-1.42,6.2-4.27,8.11s-6.62,2.86-11.34,2.86c-2.76,0-5.39-.34-7.89-1.01Z"/><path class="cls-1" d="M356.47,165.77c-2.24-1.1-3.96-2.66-5.18-4.69l5.36-5.12c1.71,3.17,4.35,4.75,7.92,4.75,2.15,0,3.87-.6,5.15-1.8s2.18-3.08,2.71-5.64l4.51-22.49h-15.24l1.34-6.64h22.98l-5.73,28.71c-1.06,5.24-2.86,8.98-5.42,11.21-2.56,2.24-6.04,3.35-10.42,3.35-3.09,0-5.75-.55-7.98-1.65Z"/><path class="cls-1" d="M425.94,134.27l-6.52,32.55h-7.25l.73-3.6c-2.93,2.68-6.6,4.02-11.03,4.02-3.58,0-6.43-.97-8.56-2.9-2.13-1.93-3.2-4.64-3.2-8.14,0-1.3.14-2.6.43-3.9l3.6-18.04h7.62l-3.6,17.86c-.16.81-.24,1.65-.24,2.5,0,1.91.54,3.37,1.61,4.39,1.08,1.02,2.69,1.52,4.85,1.52,2.76,0,5.06-.78,6.89-2.35,1.83-1.56,3.05-3.91,3.66-7.04l3.41-16.88h7.62Z"/><path class="cls-1" d="M432.62,166.23c-2.5-.67-4.44-1.51-5.82-2.53l3.17-5.85c1.34.97,3.03,1.75,5.06,2.32,2.03.57,4.12.85,6.28.85,2.44,0,4.28-.34,5.52-1.01,1.24-.67,1.86-1.63,1.86-2.89,0-.98-.52-1.69-1.55-2.13-1.04-.45-2.67-.91-4.91-1.4-2.32-.45-4.22-.92-5.7-1.43-1.48-.51-2.76-1.34-3.84-2.5-1.08-1.16-1.62-2.75-1.62-4.78,0-3.37,1.41-6.04,4.24-8.01s6.57-2.96,11.25-2.96c2.23,0,4.41.26,6.52.76,2.11.51,3.84,1.19,5.18,2.04l-2.8,5.85c-1.34-.85-2.85-1.48-4.54-1.89-1.69-.4-3.38-.61-5.09-.61-2.4,0-4.22.36-5.45,1.1-1.24.73-1.86,1.69-1.86,2.86,0,1.06.54,1.82,1.62,2.29,1.08.47,2.75.94,5.03,1.43,2.28.45,4.15.92,5.61,1.43,1.46.51,2.72,1.33,3.78,2.47,1.06,1.14,1.58,2.68,1.58,4.63,0,3.49-1.42,6.2-4.27,8.11s-6.62,2.86-11.34,2.86c-2.76,0-5.39-.34-7.89-1.01Z"/><path class="cls-1" d="M471.53,155.9c-.08.65-.12,1.12-.12,1.4,0,2.44,1.28,3.66,3.84,3.66,1.58,0,3.01-.43,4.27-1.28l1.34,5.61c-2.07,1.3-4.69,1.95-7.86,1.95-2.8,0-5.06-.77-6.76-2.32-1.71-1.54-2.56-3.68-2.56-6.4,0-.89.08-1.75.24-2.56l3.11-15.36h-5.3l1.22-6.09h5.3l1.46-7.44h7.62l-1.52,7.44h8.78l-1.22,6.09h-8.78l-3.05,15.3Z"/><path class="cls-1" d="M519.13,152.79h-25.84c.12,5.32,3.25,7.98,9.38,7.98,1.87,0,3.62-.3,5.24-.88,1.62-.59,3.01-1.41,4.14-2.47l3.17,5.3c-1.67,1.5-3.67,2.63-6,3.38-2.34.75-4.78,1.13-7.34,1.13-3.25,0-6.08-.59-8.5-1.77-2.42-1.18-4.28-2.85-5.58-5.03-1.3-2.17-1.95-4.68-1.95-7.53,0-3.62.8-6.88,2.41-9.78,1.61-2.9,3.84-5.17,6.7-6.8,2.86-1.62,6.09-2.44,9.66-2.44,4.55,0,8.19,1.27,10.91,3.81s4.08,6.02,4.08,10.45c0,1.58-.16,3.13-.49,4.63ZM497.71,142.07c-1.81,1.38-3.06,3.27-3.75,5.67h18.65c.04-2.44-.7-4.34-2.23-5.7-1.52-1.36-3.56-2.04-6.12-2.04s-4.74.69-6.55,2.07Z"/><path class="cls-1" d="M526.48,166.23c-2.5-.67-4.44-1.51-5.82-2.53l3.17-5.85c1.34.97,3.03,1.75,5.06,2.32,2.03.57,4.12.85,6.28.85,2.44,0,4.28-.34,5.52-1.01,1.24-.67,1.86-1.63,1.86-2.89,0-.98-.52-1.69-1.55-2.13-1.04-.45-2.67-.91-4.91-1.4-2.32-.45-4.22-.92-5.7-1.43-1.48-.51-2.76-1.34-3.84-2.5-1.08-1.16-1.62-2.75-1.62-4.78,0-3.37,1.41-6.04,4.24-8.01,2.82-1.97,6.57-2.96,11.24-2.96,2.24,0,4.41.26,6.52.76s3.84,1.19,5.18,2.04l-2.8,5.85c-1.34-.85-2.86-1.48-4.54-1.89-1.69-.4-3.38-.61-5.09-.61-2.4,0-4.21.36-5.45,1.1-1.24.73-1.86,1.69-1.86,2.86,0,1.06.54,1.82,1.61,2.29s2.75.94,5.03,1.43c2.27.45,4.14.92,5.61,1.43,1.46.51,2.72,1.33,3.78,2.47,1.06,1.14,1.59,2.68,1.59,4.63,0,3.49-1.42,6.2-4.27,8.11-2.85,1.91-6.62,2.86-11.34,2.86-2.76,0-5.39-.34-7.89-1.01Z"/><path class="cls-1" d="M391.82,236.31l-.06-25.6-12.55,21.09h-4.45l-12.49-20.54v25.05h-9.26v-42.66h8.17l15.97,26.51,15.72-26.51h8.11l.12,42.66h-9.26Z"/><path class="cls-1" d="M419.82,234.21c-3.51-1.89-6.28-4.51-8.29-7.86-2.01-3.35-3.02-7.14-3.02-11.37s1.01-8.01,3.02-11.37c2.01-3.35,4.77-5.97,8.29-7.86,3.52-1.89,7.47-2.83,11.86-2.83,3.7,0,7.04.65,10.03,1.95,2.99,1.3,5.49,3.17,7.53,5.61l-6.34,5.85c-2.89-3.33-6.46-5-10.73-5-2.64,0-5,.58-7.07,1.74-2.07,1.16-3.69,2.77-4.85,4.85-1.16,2.07-1.74,4.43-1.74,7.07s.58,5,1.74,7.07c1.16,2.07,2.77,3.69,4.85,4.85,2.07,1.16,4.43,1.74,7.07,1.74,4.27,0,7.84-1.69,10.73-5.06l6.34,5.85c-2.03,2.48-4.55,4.37-7.56,5.67-3.01,1.3-6.36,1.95-10.06,1.95-4.35,0-8.28-.95-11.79-2.83Z"/><path class="cls-1" d="M494.69,236.31l-.06-25.6-12.55,21.09h-4.45l-12.49-20.54v25.05h-9.26v-42.66h8.17l15.97,26.51,15.72-26.51h8.11l.12,42.66h-9.26Z"/></g></svg>