<svg preserveAspectRatio="xMidYMid meet" data-bbox="-0.01 -0.01 973.68 289.171" viewBox="-0.01 -0.01 973.68 289.171" xmlns="http://www.w3.org/2000/svg" data-type="color" role="presentation" aria-hidden="true" aria-label="">
		<g>
				<path d="M135.51 221.86c.19.19.38.39.57.58 1.93 1.66 3.73 3.46 5.6 5.18 2.35 2.16 4.94 4.03 7.28 6.19l-.02-.02c3.44 1.99 6.64 4.36 10.22 6.13 2.45 1.21 4.91 2.38 7.38 3.53.21.14.4.28.61.43 1.01.74 2.25.98 3.36 1.52 3.5 1.06 7 2.14 10.59 2.89.77.21 1.58.11 2.36.37 1.7.56 2.03.3 2.04-1.47.01-10.46 0-20.92.02-31.38 0-1.29-.34-2.63.39-3.86 8.6-.13 17.21-.01 25.81-.07 1.07 0 1.43.51 1.48 1.44.03.46.02.92.02 1.38v59.89c0 .95.24 1.98-.64 2.74-.69.39-1.44.3-2.18.3-4.92.01-9.85.26-14.74-.08-3.73-.26-7.5-.37-11.19-1.09-6.29-.75-12.44-2.17-18.5-3.99-3.74-1.03-7.33-2.47-10.91-3.93-.27-.11-.54-.19-.82-.23-4.7-2.02-9.3-4.24-13.65-6.94-2.12-1.32-4.26-2.6-6.23-4.14-3.85-2.9-7.47-6.08-11.3-9.01-2.99-2.37-5.46-5.26-8.04-8.05-.84-.91-1.84-1.7-2.47-2.8-.61-1.53-1.88-2.57-2.83-3.85-1.13-1.51-2.28-3-3.39-4.52a2.7 2.7 0 0 1-.27-.39c-.33-.81-.85-1.49-1.51-2.06-4.67-6.82-8.25-14.21-11.32-21.86-.06-.16-.08-.33-.1-.5-.65-2.55-1.72-4.97-2.41-7.51-.07-.16-.15-.32-.22-.47-.41-1.6-.72-3.24-1.33-4.79-.08-.19-.13-.38-.16-.58-.45-2.87-1.11-5.7-1.56-8.57-.74-4.75-1.35-9.49-1.25-14.31.02-1.26-.01-2.52 0-3.78.03-2.2.31-2.5 2.48-2.5 5.9-.02 11.8 0 17.69 0 1.49 0 2.98-.03 4.47.01 1.74.05 2.18.4 2.12 2.16-.13 3.79.87 7.48.84 11.25.4.72.44 1.53.51 2.32.35 3.86 1.39 7.57 2.42 11.28 1.92 6.91 4.98 13.34 8.53 19.54 1.47 1.59 2.39 3.58 3.79 5.22.1.12.2.25.28.38.53.97 1.2 1.83 2.02 2.58.98 1.45 2.23 2.69 3.32 4.04.36.44.71.87.85 1.43Z" fill="#ffffff" data-color="1"></path>
				<path d="M280.05 196.52c-.18.25-.36.49-.55.74-1.26 1.93-2.99 3.45-4.56 5.1-5.55 5.78-11.51 11.12-17.72 16.18-.36.3-.77.48-1.15.74-2.61 2.4-5.49 4.47-8.32 6.6-1.07.81-1.75.65-2.55-.42-4.74-6.38-9.38-12.83-14.07-19.24-1.11-1.52-1.02-2.21.51-3.25 2.17-1.48 4.13-3.26 6.37-4.65 1-.35 1.72-1.12 2.52-1.75 5.19-4.13 9.96-8.71 14.62-13.43.24-.24.45-.52.62-.82 1.22-1.7 2.85-3.01 4.2-4.58 1.32-1.63 2.63-3.25 4.14-4.7.45-.43.87-.91 1.6-.78 2.81 1.78 5.14 4.15 7.67 6.27 3.83 3.22 7.62 6.49 11.43 9.74 1.39 1.19 1.44 1.5.25 2.9-1.59 1.86-3.16 3.74-5 5.35Z" fill="#ffffff" data-color="1"></path>
				<path d="M156.55 146.28c-.73-.14-1.08.62-1.7.73-.56.66-1.37.92-2.09 1.33-1.48 1.4-3.21 2.52-4.51 4.12h.01c-.96 1.36-1.82 2.78-2.8 4.13l.02-.02c-.18.51-.2 1.09-.76 1.4-.31.24-.25.59-.27.92-.2.63-.07 1.36-.62 1.87-.08.08-.1.17-.05.27-.25.58-.09 1.3-.6 1.8-.03.19-.07.39-.1.58-.16.62-.17 1.29-.6 1.82l-.06.33c-.33.66-.12 1.49-.65 2.09-.34.13-.17.81-.75.69-.54-.51-.4-1.24-.61-1.85-.03-.19-.07-.38-.1-.57-.41-.52-.42-1.19-.6-1.79-.04-.2-.07-.41-.11-.61-.49-.49-.32-1.2-.6-1.76.04-.11.02-.21-.05-.3-.54-.51-.41-1.24-.61-1.86.05-.09.03-.15-.06-.21-.45-.41-.47-.99-.63-1.51-.72-1.33-1.44-2.67-2.16-4-.51-.5-.88-1.12-1.33-1.66-.79-.83-1.57-1.66-2.36-2.49-.36-.22-.8-.33-1.09-.68-1.03-.69-2.05-1.38-3.08-2.07-.46-.22-.97-.33-1.39-.64l-.13-.08h-.15c-.48-.2-1.05-.21-1.45-.59-.19-.03-.38-.07-.57-.1-.51-.16-1.06-.2-1.5-.56-.21-.04-.42-.07-.63-.11-.59-.19-1.25-.2-1.77-.61l-.56-.1c-.62-.2-1.35-.07-1.86-.61l-.13-.07-.15.02c-.57-.26-1.31-.08-1.78-.64l-.05-.02c-.12-.65.55-.41.77-.67.22-.04.44-.07.65-.11.44-.35.99-.39 1.49-.56.19-.03.38-.07.57-.1.5-.51 1.22-.37 1.82-.6l.6-.1c.52-.4 1.18-.39 1.76-.6.21-.04.43-.07.64-.11.4-.36.95-.35 1.41-.58h-.01c2.53-.99 4.73-2.55 6.93-4.11.26-.65.83-1.01 1.34-1.43.22-.23.44-.46.67-.69.41-.62.97-1.12 1.42-1.71v.02c.19-.36.31-.77.62-1.07l1.44-2.7c.22-.47.21-1.04.6-1.44.04-.19.07-.37.11-.56.15-.52.2-1.07.56-1.51.04-.21.07-.43.11-.64.21-.58.2-1.24.6-1.76.03-.2.07-.4.1-.59.22-.6.08-1.32.6-1.83.03-.18.06-.36.1-.55.16-.53.17-1.13.66-1.51.48-.03.61.33.74.68.49.48.32 1.19.6 1.74.53.63.45 1.46.66 2.19-.05.08-.04.15.05.2.37.65.45 1.39.66 2.09 1.44 5.03 4.63 8.82 8.55 12.11.35.73.86 1.24 1.72 1.28 1.7.93 3.48 1.67 5.26 2.42.06.08.14.09.23.05.51.17 1.06.2 1.49.56.22.03.44.07.66.1.57.23 1.23.21 1.74.6l.65.09c.57.27 1.29.1 1.77.62.45.22.9.44 1.34.65-.5.75-1.41.38-2.04.77l-.34.06c-.52.42-1.19.42-1.79.61-.2.04-.41.07-.61.11-.48.49-1.19.31-1.74.61l-.17-.02-.16.07c-.49.52-1.22.37-1.8.61l-.14-.02-.12.07c-.45.56-1.19.35-1.74.66Z" fill="#ffffff" data-color="1"></path>
				<path d="M198.08 109.45c-.04 1.99.1 3.95.71 5.86.11 3.7.22 7.41.31 11.11.01.54.22 1.15-.31 1.6-.3.23-.65.17-.99.17h-24.18c-.34 0-.69.05-1-.15-.44-.55-.33-1.2-.33-1.82.05-5.27-.36-10.5-1.41-15.66-.17-.85.03-1.72-.28-2.54l-2.1-7.89c-1.18-2.44-1.98-5.03-2.91-7.56-.14-.38-.28-.74-.56-1.03-.39-.83-.63-1.75-1.27-2.45-2.14-5.2-5.21-9.86-8.51-14.37-.8-1.1-1.7-2.14-2.56-3.2-3.5-4.53-7.44-8.63-12.07-12.03l-.35-.35c-.43-1.33-1.72-1.75-2.68-2.49-5.97-4.65-12.59-8.14-19.57-11-4.24-1.73-8.59-3.07-13.03-4.16-1.27-.31-2.57-.44-3.84-.83-1.59-.49-1.89.54-1.88 1.93.03 11.02-.01 22.03.06 33.05.01 1.63-.37 2.14-2.06 2.12-7.46-.09-14.92-.07-22.38-.01-1.5.01-2.1-.29-2.1-1.97.06-20.25.06-40.51 0-60.76 0-1.66.56-2.03 2.09-2 4.3.08 8.61-.08 12.91.06 5.02.17 10.07.25 15.02 1.11 9.09 1.57 17.99 3.89 26.53 7.55 3.23 1.38 6.32 3.03 9.56 4.37 1.19.1 2.02 1.03 3.09 1.39 5.37 2.99 10.36 6.53 15.19 10.31 2.71 2.51 5.45 4.99 8.11 7.54 3.92 3.75 7.45 7.85 10.76 12.15 4.05 5.22 7.53 10.8 10.48 16.72.65.89 1.04 1.93 1.61 2.87.23.46.46.91.69 1.37 1.81 4.35 3.59 8.71 4.99 13.22 1.5 4.82 2.68 9.72 3.62 14.68l.65 3.11Z" fill="#ffffff" data-color="1"></path>
				<path d="M203.58 192.4c-2.72.41-5.15 1.76-7.79 2.42-3.03.75-5.96 1.86-9.09 2.19-.36.04-.7.35-1.05.54-4.3.46-8.55 1.35-12.88 1.61-3.38.2-6.74.13-10.11.21-.99.02-1.09-.54-1.09-1.32.02-8.3.03-16.6.05-24.9 1.05-.36 2.15-.17 3.21-.15 2.06.05 4.08-.17 6.1-.51.44-.02.88-.05 1.33-.07 6.56-.81 12.98-2.26 19.31-4.11 2.82-.6 5.33-1.98 7.92-3.13 5.17-2.3 9.99-5.22 14.62-8.46.31-.21.53-.42.52-.81 4.07-3.25 8.05-6.59 11.61-10.4 6.62-7.08 12.02-14.96 15.96-23.82.23-.52.45-1.04.68-1.56.44-1.15.8-2.34 1.39-3.44 1.38-3.94 2.76-7.88 3.47-12.02 1.72-4.68 1.59-4.87-3.23-4.87-10.32 0-20.65-.03-30.97.03-1.54 0-1.95-.47-1.94-1.96.07-7.69.07-15.37 0-23.06-.01-1.55.49-1.92 1.98-1.91 20.42.04 40.84.05 61.26 0 1.51 0 1.96.38 1.93 1.91-.12 6.08.04 12.16-.18 18.23-.14 3.99-.64 7.99-1.33 11.94-.56 1.09-.4 2.32-.65 3.47l-.06.65c-.71 2.38-1.04 4.86-1.78 7.24-.57 1.83-1.09 3.69-1.61 5.54-1.21 4.52-3.09 8.78-5.07 13-5.5 11.7-12.92 22.08-21.94 31.32-2.59 2.66-5.48 5.03-8.24 7.52-.25.23-.57.38-.64.76-3.81 2.66-7.47 5.54-11.43 7.97-1.25.77-2.46 1.58-3.69 2.38-2.3.53-4.12 2.07-6.21 3.04-3.41 1.59-6.85 3.08-10.32 4.54Z" fill="#ffffff" data-color="1"></path>
				<path d="M82.75 129.08c-.35.22-.7.44-1.05.67-3.27 1.4-5.94 3.74-8.81 5.76-1.39.97-2.66 2.11-3.98 3.18-2.05 1.9-4.04 3.87-6.01 5.85-1.41 1.42-2.69 2.96-3.89 4.57-5 6.35-9.28 13.13-12.45 20.59-1.79 2.91-2.59 6.22-3.6 9.42-.91 2.88-1.5 5.87-2.17 8.82-.46 2-.09 2.39 2.04 2.39 10.95 0 21.91.03 32.86-.03 1.54 0 1.94.44 1.92 1.94-.08 8.2-.06 16.4-.07 24.6-.63.03-1.26.08-1.89.09-20.35 0-40.71-.01-61.06.04-1.63 0-2.16-.4-2.12-2.08.11-4.76-.12-9.52.08-14.27.25-5.7.85-11.37 1.84-17.02 1.28-7.24 3.4-14.22 5.93-21.09.72-1.95 1.91-3.73 2.16-5.85.69-1.38 1.38-2.75 2.08-4.13.43-.36.37-.96.69-1.37.97-1.58 1.79-3.24 2.73-4.84 1.15-1.84 2.29-3.68 3.44-5.51 1.48-1.48 2.67-3.16 3.45-5.12.2-.15.4-.3.6-.46.88-.77 1.35-1.86 2.13-2.71 1.18-1.35 2.34-2.72 3.44-4.13 5.86-6.43 12.2-12.34 19.38-17.29.23-.16.42-.38.63-.57 1.75-.56 3.08-1.83 4.59-2.78 3.85-2.39 7.93-4.36 11.89-6.56 3.57-1.47 7.15-2.94 10.73-4.4 2.21-.59 4.41-1.23 6.52-2.13 5.41-1.63 10.97-2.56 16.53-3.43 4.79-.15 9.55-.92 14.36-.68 2.18.11 2.18.02 2.18 2.27 0 7.67-.03 15.34.03 23.01 0 1.29-.35 1.71-1.64 1.63-3.95-.26-7.87.27-11.79.66-1.27.24-2.62.04-3.83.64l-.16.03h-.16c-1.03.29-2.17.04-3.13.63-7.4 1.53-14.41 4.19-21.1 7.66-1.15.6-2.41 1.04-3.33 2.02Z" fill="#ffffff" data-color="1"></path>
				<path d="M34.2 67.09c1.16-.8 2.37-1.53 3.47-2.41.97-.78 1.54-.52 2.22.37 1.74 2.3 3.23 4.81 5.26 6.89 2.07 3.62 4.75 6.82 7.2 10.17 2.71 3.71 2.76 3.58-.87 6.25-10.3 7.57-19.61 16.23-27.94 25.93-.59.69-1.25 1.33-1.86 2.02q-1.61 1.82-3.48.22c-3.17-2.71-6.34-5.41-9.51-8.12-.81-.62-1.51-1.36-2.34-1.97-1.75-1.69-3.52-3.35-5.48-4.79-.91-.67-1.2-1.3-.46-2.23C9.44 88.49 19.65 78.75 30.7 69.89c.27-.21.5-.46.75-.7.79-.86 1.84-1.4 2.74-2.1Z" fill="#ffffff" data-color="1"></path>
				<path d="M108.9 280.24c-2.06 2.41-4.13 4.81-6.19 7.22-.22.17-.46.32-.65.52q-2.04 2.24-4.37.23c-1.76-1.52-3.53-3.03-5.29-4.55-4.62-4.5-9.29-8.95-13.58-13.78-2.84-3.19-5.64-6.42-8.45-9.64-1.27-1.71-2.54-3.42-3.82-5.12-.68-1.06-1.33-2.14-2.18-3.07-.74-.81-.53-1.32.3-1.94 2.69-2.02 5.47-3.92 8.1-6.02 1.1-.88 2.39-1.49 3.42-2.46 2.7-2.01 5.41-4.02 8.09-6.04.85-.64 1.39-.38 1.97.42 3.96 5.54 8.28 10.8 12.84 15.85 5.18 5.73 10.7 11.11 16.67 16.02 1.61 2.09 1.55 2.05-.32 4.36-2.17 2.67-4.65 5.09-6.53 8Z" fill="#ffffff" data-color="1"></path>
				<path d="M190.16.68c1.24 1.65 2.85 2.89 4.54 4.04 7.1 6.3 13.71 13.08 19.87 20.3.44.51.79 1.13 1.45 1.41 2.85 3.58 5.7 7.16 8.55 10.73 1.15 2.21 1.13 2.19-1.17 3.87-5.86 4.27-11.7 8.58-17.56 12.85-1.93 1.41-1.94 1.39-3.29-.54-3.65-5.24-7.63-10.21-12.05-14.83-1.94-1.96-3.87-3.92-5.81-5.88-.21-1.14-1.33-1.47-2.02-2.17-2.74-2.77-5.42-5.61-8.67-7.81-2.34-2.21-2.37-2.23-.22-4.78 4.66-5.53 9.34-11.04 14.01-16.56.49-.42.9-.91 1.39-1.32.49 0 .6.53.97.68Z" fill="#ffffff" data-color="1"></path>
				<path d="M333.32 114.77c-3.86-1.2-6.88-2.74-9.07-4.61l4.3-7.98c2.29 1.83 5.02 3.27 8.17 4.34s6.37 1.6 9.66 1.6c4.01 0 7.21-.69 9.58-2.07s3.56-3.27 3.56-5.67c0-1.36-.48-2.49-1.45-3.4s-2.16-1.66-3.6-2.23c-1.43-.57-3.43-1.23-5.98-1.95-3.55-1.04-6.41-2.05-8.6-3.01s-4.07-2.41-5.63-4.34-2.35-4.43-2.35-7.51c0-3.54 1-6.65 3.01-9.31s4.81-4.72 8.41-6.18 7.74-2.19 12.43-2.19c3.54 0 6.91.4 10.09 1.21s5.92 1.94 8.21 3.4l-3.99 8.06c-2.03-1.36-4.33-2.4-6.88-3.13-2.56-.73-5.21-1.09-7.98-1.09-4.07 0-7.29.74-9.66 2.23-2.37 1.48-3.56 3.45-3.56 5.9 0 1.41.49 2.58 1.49 3.52.99.94 2.19 1.68 3.6 2.23q2.115.825 6.18 2.07c3.44.99 6.26 1.95 8.45 2.89s4.05 2.32 5.59 4.14c1.54 1.83 2.31 4.2 2.31 7.12 0 3.6-1 6.72-3.01 9.38q-3.015 3.99-8.52 6.18-5.52 2.19-12.63 2.19-6.33 0-12.12-1.8Z" fill="#ffffff" data-color="1"></path>
				<path d="M385.65 113.78c-3.04-1.53-5.39-3.68-7.05-6.43s-2.49-5.95-2.49-9.58c0-4.62 1.05-8.78 3.15-12.46 2.1-3.69 5.04-6.58 8.8-8.69 3.77-2.1 8.01-3.16 12.74-3.16 4.05 0 7.61.75 10.67 2.26s5.43 3.64 7.09 6.39 2.49 5.95 2.49 9.58c0 4.62-1.06 8.78-3.19 12.46-2.13 3.69-5.08 6.6-8.84 8.72-3.77 2.13-8.01 3.2-12.74 3.2-4.05 0-7.6-.77-10.63-2.3Zm18.62-8.02c2.15-1.32 3.86-3.17 5.1-5.53 1.25-2.36 1.87-5.05 1.87-8.06 0-3.27-.96-5.83-2.88-7.67q-2.88-2.76-8.1-2.76c-2.75 0-5.21.66-7.36 1.99-2.16 1.32-3.86 3.17-5.1 5.53-1.25 2.36-1.87 5.05-1.87 8.07 0 3.27.96 5.83 2.88 7.67 1.92 1.85 4.62 2.77 8.1 2.77 2.75 0 5.21-.66 7.36-1.99Z" fill="#ffffff" data-color="1"></path>
				<path d="M436.78 57.67h9.68L435 115.1h-9.68z" fill="#ffffff" data-color="1"></path>
				<path d="m495.97 73.91-8.29 41.39h-9.22l.93-4.57c-3.72 3.41-8.4 5.12-14.03 5.12-4.55 0-8.18-1.23-10.89-3.68s-4.07-5.9-4.07-10.35c0-1.65.18-3.31.54-4.96l4.57-22.94h9.69l-4.57 22.71c-.21 1.03-.31 2.09-.31 3.18 0 2.43.68 4.29 2.05 5.58s3.42 1.94 6.16 1.94c3.51 0 6.43-.99 8.76-2.98s3.88-4.97 4.65-8.95l4.34-21.47h9.69Z" fill="#ffffff" data-color="1"></path>
				<path d="M514.17 101.43c-.1.83-.15 1.42-.15 1.78 0 3.1 1.63 4.65 4.88 4.65 2.01 0 3.82-.54 5.42-1.63l1.7 7.12c-2.63 1.65-5.96 2.48-9.99 2.48-3.56 0-6.43-.98-8.59-2.94-2.17-1.96-3.25-4.67-3.25-8.13 0-1.13.1-2.22.31-3.25L508.45 82h-6.74l1.55-7.74H510l1.86-9.45h9.68l-1.94 9.45h11.15L529.2 82h-11.15l-3.87 19.44Z" fill="#ffffff" data-color="1"></path>
				<path d="M542.04 73.69h9.7l-8.22 41.42h-9.7zm2.87-8.42c-1.09-1.06-1.63-2.34-1.63-3.84 0-1.76.61-3.23 1.82-4.42 1.22-1.19 2.8-1.78 4.77-1.78 1.71 0 3.1.5 4.19 1.51s1.63 2.24 1.63 3.68c0 1.91-.61 3.47-1.82 4.65-1.22 1.19-2.81 1.78-4.77 1.78-1.71 0-3.1-.53-4.19-1.59Z" fill="#ffffff" data-color="1"></path>
				<path d="M566.62 113.55c-3.02-1.52-5.36-3.65-7.01-6.39s-2.48-5.91-2.48-9.53c0-4.59 1.05-8.73 3.14-12.39 2.09-3.67 5.01-6.55 8.75-8.64s7.97-3.14 12.66-3.14c4.03 0 7.56.75 10.61 2.25s5.4 3.61 7.05 6.35 2.48 5.92 2.48 9.53q0 6.9-3.18 12.39c-2.12 3.67-5.05 6.56-8.79 8.68s-7.97 3.18-12.66 3.18c-4.03 0-7.55-.76-10.57-2.29m18.52-7.98c2.14-1.32 3.83-3.15 5.07-5.5s1.86-5.02 1.86-8.02c0-3.25-.96-5.8-2.87-7.63s-4.6-2.75-8.06-2.75q-4.11 0-7.32 1.98c-2.14 1.32-3.83 3.15-5.07 5.5s-1.86 5.02-1.86 8.02c0 3.25.95 5.8 2.87 7.63 1.91 1.83 4.6 2.75 8.06 2.75q4.11 0 7.32-1.98" fill="#ffffff" data-color="1"></path>
				<path d="M648.21 77.07c2.68 2.4 4.03 5.8 4.03 10.2 0 1.23-.18 2.86-.54 4.91l-4.52 22.69h-9.58l4.45-22.46c.2-1.02.31-2.07.31-3.14 0-4.96-2.73-7.44-8.2-7.44-3.53 0-6.44.99-8.74 2.95q-3.45 2.955-4.68 8.85l-4.29 21.24h-9.58L615 73.93h9.12l-.92 4.52c3.68-3.32 8.38-4.98 14.11-4.98 4.6 0 8.24 1.2 10.93 3.6Z" fill="#ffffff" data-color="1"></path>
				<path d="M663.78 114.09c-3.14-.84-5.58-1.9-7.31-3.18l3.98-7.35c1.68 1.22 3.8 2.2 6.36 2.91 2.55.72 5.18 1.07 7.89 1.07q4.59 0 6.93-1.26c1.56-.84 2.34-2.05 2.34-3.64 0-1.23-.65-2.12-1.95-2.68s-3.36-1.15-6.16-1.76c-2.91-.56-5.3-1.16-7.16-1.8s-3.47-1.68-4.82-3.14c-1.35-1.45-2.03-3.46-2.03-6.01 0-4.24 1.77-7.59 5.32-10.07s8.26-3.71 14.13-3.71q4.215 0 8.19.96c2.65.64 4.82 1.49 6.51 2.56l-3.52 7.35c-1.68-1.07-3.59-1.86-5.71-2.37s-4.25-.76-6.39-.76c-3.01 0-5.3.46-6.85 1.38q-2.34 1.38-2.34 3.6c0 1.33.68 2.29 2.03 2.87 1.35.59 3.46 1.19 6.32 1.8q4.29.84 7.05 1.8c1.84.64 3.42 1.67 4.75 3.1s1.99 3.37 1.99 5.82c0 4.39-1.79 7.79-5.36 10.18-3.57 2.4-8.32 3.6-14.24 3.6-3.47 0-6.78-.42-9.92-1.26Z" fill="#ffffff" data-color="1"></path>
				<path d="M722.54 113.64c-2.83-1.39-5.02-3.37-6.57-5.95l6.8-6.49c2.16 4.02 5.51 6.03 10.04 6.03 2.73 0 4.9-.76 6.53-2.28 1.62-1.52 2.77-3.9 3.44-7.15l5.72-28.51h-19.31l1.7-8.42h29.12l-7.26 36.39c-1.34 6.64-3.63 11.38-6.87 14.21-3.25 2.83-7.65 4.25-13.21 4.25-3.91 0-7.29-.7-10.12-2.09Z" fill="#ffffff" data-color="1"></path>
				<path d="m810.53 73.77-8.2 40.92h-9.12l.92-4.52c-3.68 3.37-8.3 5.06-13.87 5.06-4.5 0-8.08-1.21-10.77-3.64-2.68-2.42-4.02-5.84-4.02-10.23 0-1.64.18-3.27.54-4.91l4.52-22.68h9.58l-4.52 22.45c-.21 1.02-.31 2.07-.31 3.14 0 2.4.67 4.24 2.03 5.52 1.35 1.28 3.39 1.92 6.09 1.92 3.47 0 6.36-.98 8.66-2.95s3.83-4.92 4.6-8.85l4.29-21.23z" fill="#ffffff" data-color="1"></path>
				<path d="M819.7 114.66c-3.25-.87-5.77-1.97-7.57-3.29l4.12-7.61c1.74 1.27 3.94 2.27 6.58 3.01q3.96 1.11 8.16 1.11c3.17 0 5.56-.44 7.17-1.31s2.42-2.13 2.42-3.76c0-1.27-.67-2.19-2.02-2.77s-3.47-1.19-6.38-1.82q-4.515-.87-7.41-1.86a12 12 0 0 1-4.99-3.25c-1.4-1.5-2.1-3.58-2.1-6.22 0-4.38 1.83-7.86 5.51-10.42 3.67-2.56 8.55-3.84 14.62-3.84 2.91 0 5.73.33 8.48.99s4.99 1.55 6.74 2.65l-3.65 7.61c-1.74-1.11-3.71-1.93-5.9-2.46s-4.4-.79-6.62-.79c-3.12 0-5.48.47-7.09 1.43-1.61.95-2.42 2.19-2.42 3.73 0 1.37.7 2.37 2.1 2.97q2.1.915 6.54 1.86 4.44.87 7.29 1.86c1.9.66 3.54 1.73 4.91 3.21s2.06 3.49 2.06 6.02c0 4.54-1.85 8.06-5.55 10.54s-8.61 3.73-14.74 3.73c-3.59 0-7.01-.44-10.26-1.31Z" fill="#ffffff" data-color="1"></path>
				<path d="M869.27 101.07c-.1.83-.15 1.42-.15 1.78 0 3.1 1.63 4.65 4.88 4.65 2.02 0 3.82-.54 5.43-1.63l1.7 7.13c-2.63 1.66-5.97 2.48-10 2.48-3.57 0-6.44-.98-8.61-2.95-2.17-1.96-3.26-4.68-3.26-8.14 0-1.14.1-2.22.31-3.26l3.96-19.54h-6.75l1.55-7.75h6.74l1.86-9.46h9.69l-1.94 9.46h11.16l-1.55 7.75h-11.16l-3.88 19.46Z" fill="#ffffff" data-color="1"></path>
				<path d="M931.43 97.28h-33.01c.16 6.8 4.15 10.2 11.99 10.2 2.39 0 4.62-.38 6.7-1.13 2.07-.75 3.84-1.8 5.29-3.15l4.05 6.77c-2.13 1.92-4.68 3.36-7.67 4.32-2.98.96-6.11 1.44-9.38 1.44-4.15 0-7.77-.75-10.86-2.26-3.09-1.5-5.46-3.65-7.12-6.42-1.66-2.78-2.49-5.98-2.49-9.61 0-4.62 1.02-8.78 3.07-12.49s4.91-6.6 8.56-8.68c3.66-2.07 7.77-3.11 12.34-3.11 5.81 0 10.46 1.62 13.94 4.87s5.22 7.7 5.22 13.35c0 2.02-.21 4-.62 5.92Zm-27.36-13.7c-2.31 1.77-3.91 4.18-4.79 7.24h23.82c.05-3.11-.89-5.54-2.84-7.28s-4.55-2.61-7.82-2.61-6.06.88-8.37 2.65" fill="#ffffff" data-color="1"></path>
				<path d="M940.54 114.43q-4.845-1.305-7.53-3.27l4.1-7.57c1.73 1.26 3.91 2.26 6.54 2.99 2.63.74 5.33 1.1 8.12 1.1 3.15 0 5.53-.43 7.13-1.3s2.4-2.11 2.4-3.74q0-1.89-2.01-2.76c-1.34-.58-3.46-1.18-6.34-1.81-3-.58-5.45-1.2-7.37-1.85-1.92-.66-3.57-1.73-4.97-3.23-1.39-1.5-2.09-3.56-2.09-6.19 0-4.36 1.83-7.82 5.48-10.36 3.65-2.55 8.5-3.82 14.54-3.82q4.335 0 8.43.99c4.095.99 4.97 1.54 6.7 2.64l-3.62 7.57c-1.73-1.1-3.69-1.92-5.87-2.44s-4.37-.79-6.58-.79c-3.1 0-5.45.47-7.05 1.42s-2.4 2.18-2.4 3.7c0 1.37.69 2.35 2.09 2.96s3.56 1.22 6.5 1.85c2.94.58 5.36 1.2 7.25 1.85 1.89.66 3.52 1.72 4.89 3.19s2.05 3.47 2.05 5.99c0 4.52-1.84 8.01-5.52 10.48s-8.57 3.7-14.66 3.7c-3.57 0-6.98-.43-10.21-1.3" fill="#ffffff" data-color="1"></path>
				<path d="m603.55 221.17-.08-32.8-16.09 27.02h-5.7l-16.01-26.32v32.1H553.8v-54.66h10.46l20.46 33.97 20.15-33.97h10.39l.16 54.66z" fill="#ffffff" data-color="1"></path>
				<path d="M639.43 218.48c-4.5-2.42-8.04-5.78-10.62-10.07-2.58-4.3-3.87-9.15-3.87-14.56s1.29-10.27 3.87-14.56c2.58-4.3 6.12-7.65 10.62-10.07s9.57-3.63 15.19-3.63c4.74 0 9.02.83 12.85 2.5 3.83 1.66 7.04 4.06 9.64 7.18l-8.12 7.5c-3.7-4.27-8.28-6.4-13.75-6.4-3.38 0-6.4.74-9.06 2.23a15.7 15.7 0 0 0-6.21 6.21q-2.22 3.99-2.22 9.06c0 5.07.74 6.4 2.22 9.06q2.22 3.975 6.21 6.21c2.65 1.48 5.67 2.23 9.06 2.23 5.47 0 10.05-2.16 13.75-6.48l8.12 7.5c-2.6 3.18-5.83 5.6-9.68 7.26-3.85 1.67-8.15 2.5-12.89 2.5-5.57 0-10.61-1.21-15.11-3.63Z" fill="#ffffff" data-color="1"></path>
				<path d="m735.37 221.17-.08-32.8-16.09 27.02h-5.7l-16.01-26.32v32.1h-11.87v-54.66h10.46l20.46 33.97 20.15-33.97h10.39l.16 54.66z" fill="#ffffff" data-color="1"></path>
		</g>
</svg>