<svg width="350" height="320" viewBox="0 0 350 320" fill="none" xmlns="http://www.w3.org/2000/svg">
<path d="M97.6473 320C104.292 318.619 110.083 317.809 115.595 316.173C126.735 312.87 138.055 309.793 148.702 305.395C165.058 298.656 175.066 285.927 182.777 271.623C184.302 268.786 185.976 268.14 189.421 268.561C206.204 270.662 223.004 272.913 239.869 274.219C290.267 278.107 337.565 245.43 347.539 200.01C349.016 193.315 349.771 186.38 349.82 179.536C350.05 151.407 350.05 123.263 349.869 95.119C349.623 54.862 324.571 21.1343 284.066 6.45444C268.283 0.720588 251.828 -1.2007 234.963 0.720588C202.693 4.39806 170.44 8.24064 138.186 12.0682C119.631 14.2747 100.945 15.8808 82.5704 19.0029C36.5195 26.8231 1.7229 64.4534 0.443268 107.487C-0.147339 127.241 -0.13092 147.024 0.426849 166.762C1.7229 212.738 39.6038 250.563 90.1991 256.988C95.7442 257.693 101.306 258.459 106.884 258.909C109.689 259.134 110.87 260.35 111.674 262.647C115.661 274.039 114.102 285.237 109.837 296.134C107.179 302.919 103.389 309.343 100.075 315.902C99.5339 316.983 98.8285 318.019 97.6473 319.985V320Z" fill="#292560"/>
</svg>
